<svg width="510" height="59" viewBox="0 0 510 59" fill="none" xmlns="http://www.w3.org/2000/svg">
        <path d="M32.336 8.968L51.776 49.144C52.592 50.776 53 52 53 52.816C53 54.544 51.608 56.104 48.824 57.496C47.192 58.312 45.896 58.72 44.936 58.72C44.024 58.72 43.256 58.504 42.632 58.072C42.056 57.64 41.624 57.184 41.336 56.704C41.096 56.224 40.736 55.504 40.256 54.544L36.512 46.768H16.568L12.824 54.544C12.344 55.504 11.96 56.2 11.672 56.632C11.432 57.064 11 57.52 10.376 58C9.79999 58.432 9.03199 58.648 8.07199 58.648C7.15999 58.648 5.88799 58.24 4.25599 57.424C1.47199 56.08 0.0799866 54.544 0.0799866 52.816C0.0799866 52 0.487987 50.776 1.30399 49.144L20.744 8.896C21.272 7.792 22.064 6.904 23.12 6.232C24.224 5.56 25.376 5.224 26.576 5.224C29.168 5.224 31.088 6.472 32.336 8.968ZM26.504 26.248L21.752 36.112H31.328L26.504 26.248Z" fill="#866A2D" />
        <path d="M79.4679 4.288C79.8519 3.568 80.4999 3.064 81.4119 2.776C82.3239 2.488 83.5239 2.344 85.0119 2.344C86.5479 2.344 87.7719 2.488 88.6839 2.776C89.5959 3.064 90.2199 3.568 90.5559 4.288C90.9399 5.008 91.1559 5.656 91.2039 6.232C91.2999 6.76 91.3479 7.576 91.3479 8.68V51.664C91.3479 52.768 91.2999 53.608 91.2039 54.184C91.1559 54.712 90.9399 55.312 90.5559 55.984C89.8359 57.28 87.7959 57.928 84.4359 57.928C81.1239 57.928 79.2759 56.752 78.8919 54.4C76.8759 56.704 74.0679 57.856 70.4679 57.856C66.1479 57.856 62.2119 55.984 58.6599 52.24C55.1079 48.448 53.3319 44.056 53.3319 39.064C53.3319 34.024 55.1079 29.608 58.6599 25.816C62.2599 22.024 66.1959 20.128 70.4679 20.128C74.0199 20.128 76.7799 21.328 78.7479 23.728V8.608C78.7479 7.504 78.7719 6.688 78.8199 6.16C78.9159 5.584 79.1319 4.96 79.4679 4.288ZM67.8039 43.384C69.0519 44.68 70.5639 45.328 72.3399 45.328C74.1159 45.328 75.5799 44.68 76.7319 43.384C77.9319 42.088 78.5319 40.672 78.5319 39.136C78.5319 37.552 77.9559 36.088 76.8039 34.744C75.6999 33.4 74.1879 32.728 72.2679 32.728C70.3479 32.728 68.8119 33.4 67.6599 34.744C66.5079 36.04 65.9319 37.48 65.9319 39.064C65.9319 40.648 66.5559 42.088 67.8039 43.384Z" fill="#866A2D" />
        <path d="M121.707 24.088C121.995 21.4 123.891 20.056 127.395 20.056C129.267 20.056 130.659 20.2 131.571 20.488C132.483 20.776 133.107 21.28 133.443 22C133.827 22.72 134.043 23.368 134.091 23.944C134.187 24.472 134.235 25.288 134.235 26.392V51.592C134.235 52.696 134.187 53.536 134.091 54.112C134.043 54.64 133.851 55.264 133.515 55.984C132.843 57.232 131.187 57.856 128.547 57.856C125.955 57.856 124.203 57.544 123.291 56.92C122.427 56.248 121.923 55.288 121.779 54.04C120.003 56.584 117.027 57.856 112.851 57.856C108.723 57.856 104.883 55.96 101.331 52.168C97.7791 48.376 96.0031 43.984 96.0031 38.992C96.0031 33.952 97.7791 29.56 101.331 25.816C104.931 22.024 108.867 20.128 113.139 20.128C114.771 20.128 116.259 20.416 117.603 20.992C118.947 21.568 119.883 22.12 120.411 22.648C120.939 23.128 121.371 23.608 121.707 24.088ZM108.603 39.064C108.603 40.648 109.227 42.088 110.475 43.384C111.723 44.632 113.235 45.256 115.011 45.256C116.787 45.256 118.251 44.608 119.403 43.312C120.603 42.016 121.203 40.6 121.203 39.064C121.203 37.48 120.627 36.016 119.475 34.672C118.371 33.328 116.859 32.656 114.939 32.656C113.067 32.656 111.531 33.328 110.331 34.672C109.179 36.016 108.603 37.48 108.603 39.064Z" fill="#866A2D" />
        <path d="M152.358 25.096C154.614 21.688 157.326 19.984 160.494 19.984C165.39 19.984 169.038 22.072 171.438 26.248C171.966 25.528 172.59 24.784 173.31 24.016C174.078 23.2 175.278 22.336 176.91 21.424C178.542 20.464 180.222 19.984 181.95 19.984C185.79 19.984 189.006 21.472 191.598 24.448C194.19 27.376 195.486 32.248 195.486 39.064V51.664C195.486 52.768 195.438 53.608 195.342 54.184C195.294 54.712 195.078 55.336 194.694 56.056C194.07 57.352 192.222 58 189.15 58C186.126 58 184.278 57.328 183.606 55.984C183.27 55.264 183.054 54.64 182.958 54.112C182.91 53.536 182.886 52.696 182.886 51.592V38.992C182.886 34.816 181.398 32.728 178.422 32.728C176.742 32.728 175.59 33.28 174.966 34.384C174.39 35.488 174.102 37.048 174.102 39.064V51.664C174.102 52.816 174.054 53.656 173.958 54.184C173.91 54.712 173.694 55.336 173.31 56.056C172.638 57.352 170.766 58 167.694 58C164.67 58 162.822 57.328 162.15 55.984C161.814 55.264 161.598 54.64 161.502 54.112C161.454 53.536 161.43 52.696 161.43 51.592V38.992C161.43 34.816 159.942 32.728 156.966 32.728C154.086 32.728 152.646 34.816 152.646 38.992V51.736C152.646 52.84 152.598 53.68 152.502 54.256C152.454 54.784 152.238 55.408 151.854 56.128C151.134 57.376 149.262 58 146.238 58C143.214 58 141.366 57.352 140.694 56.056C140.358 55.336 140.142 54.712 140.046 54.184C139.998 53.656 139.974 52.816 139.974 51.664V26.32C139.974 25.216 139.998 24.4 140.046 23.872C140.142 23.296 140.382 22.672 140.766 22C141.486 20.704 143.19 20.056 145.878 20.056C148.566 20.056 150.318 20.488 151.134 21.352C151.95 22.216 152.358 23.464 152.358 25.096Z" fill="#866A2D" />
        <path d="M242.035 31.504C249.379 38.56 254.587 43.864 257.659 47.416C259.243 49.192 260.035 50.704 260.035 51.952C260.035 53.152 259.075 54.592 257.155 56.272C255.235 57.904 253.651 58.72 252.403 58.72C251.203 58.72 249.739 57.712 248.011 55.696L232.171 37.624V51.664C232.171 52.816 232.123 53.656 232.027 54.184C231.979 54.712 231.763 55.336 231.379 56.056C230.707 57.352 228.835 58 225.763 58C222.403 58 220.435 57.088 219.859 55.264C219.571 54.496 219.427 53.272 219.427 51.592V11.56C219.427 10.456 219.451 9.64 219.499 9.112C219.595 8.536 219.835 7.888 220.219 7.168C220.891 5.872 222.763 5.224 225.835 5.224C229.195 5.224 231.187 6.112 231.811 7.888C232.051 8.704 232.171 9.952 232.171 11.632V25.384C238.699 18.04 243.979 12.016 248.011 7.312C249.691 5.344 251.155 4.35999 252.403 4.35999C253.651 4.35999 255.235 5.2 257.155 6.88C259.075 8.512 260.035 9.952 260.035 11.2C260.035 12.4 259.315 13.84 257.875 15.52C255.091 18.736 250.771 23.152 244.915 28.768L242.035 31.504Z" fill="#866A2D" />
        <path d="M287.152 24.088C287.44 21.4 289.336 20.056 292.84 20.056C294.712 20.056 296.104 20.2 297.016 20.488C297.928 20.776 298.552 21.28 298.888 22C299.272 22.72 299.488 23.368 299.536 23.944C299.632 24.472 299.68 25.288 299.68 26.392V51.592C299.68 52.696 299.632 53.536 299.536 54.112C299.488 54.64 299.296 55.264 298.96 55.984C298.288 57.232 296.632 57.856 293.992 57.856C291.4 57.856 289.648 57.544 288.736 56.92C287.872 56.248 287.368 55.288 287.224 54.04C285.448 56.584 282.472 57.856 278.296 57.856C274.168 57.856 270.328 55.96 266.776 52.168C263.224 48.376 261.448 43.984 261.448 38.992C261.448 33.952 263.224 29.56 266.776 25.816C270.376 22.024 274.312 20.128 278.584 20.128C280.216 20.128 281.704 20.416 283.048 20.992C284.392 21.568 285.328 22.12 285.856 22.648C286.384 23.128 286.816 23.608 287.152 24.088ZM274.048 39.064C274.048 40.648 274.672 42.088 275.92 43.384C277.168 44.632 278.68 45.256 280.456 45.256C282.232 45.256 283.696 44.608 284.848 43.312C286.048 42.016 286.648 40.6 286.648 39.064C286.648 37.48 286.072 36.016 284.92 34.672C283.816 33.328 282.304 32.656 280.384 32.656C278.512 32.656 276.976 33.328 275.776 34.672C274.624 36.016 274.048 37.48 274.048 39.064Z" fill="#866A2D" />
        <path d="M331.195 20.488C332.107 20.776 332.851 21.28 333.427 22C334.051 22.672 334.363 23.776 334.363 25.312C334.363 26.848 333.907 28.528 332.995 30.352C332.083 32.176 330.763 33.088 329.035 33.088C328.171 33.088 327.331 32.896 326.515 32.512C325.747 32.128 324.715 31.936 323.419 31.936C322.123 31.936 320.899 32.392 319.747 33.304C318.643 34.216 318.091 35.32 318.091 36.616V51.736C318.091 52.84 318.043 53.68 317.947 54.256C317.899 54.784 317.683 55.408 317.299 56.128C316.579 57.376 314.707 58 311.683 58C309.379 58 307.723 57.592 306.715 56.776C305.947 56.104 305.515 55.072 305.419 53.68C305.419 53.2 305.419 52.504 305.419 51.592V26.32C305.419 25.216 305.443 24.4 305.491 23.872C305.587 23.296 305.803 22.672 306.139 22C306.811 20.704 308.683 20.056 311.755 20.056C314.635 20.056 316.435 20.608 317.155 21.712C317.683 22.48 317.947 23.272 317.947 24.088C318.187 23.752 318.523 23.344 318.955 22.864C319.435 22.384 320.419 21.736 321.907 20.92C323.395 20.104 324.691 19.696 325.795 19.696C326.947 19.696 327.907 19.768 328.675 19.912C329.443 20.008 330.283 20.2 331.195 20.488Z" fill="#866A2D" />
        <path d="M338.325 8.536C338.325 7.432 338.349 6.616 338.397 6.088C338.493 5.512 338.709 4.864 339.045 4.144C339.717 2.848 341.589 2.2 344.661 2.2C347.589 2.2 349.413 2.848 350.133 4.144C350.517 4.864 350.733 5.512 350.781 6.088C350.877 6.664 350.925 7.504 350.925 8.608V41.944C350.925 43.672 351.069 44.776 351.357 45.256C351.645 45.688 352.269 45.904 353.229 45.904C354.237 45.904 354.909 45.952 355.245 46.048C355.581 46.096 355.989 46.288 356.469 46.624C357.429 47.248 357.909 48.952 357.909 51.736C357.909 54.76 357.429 56.608 356.469 57.28C355.221 58.144 352.245 58.288 347.541 57.712C343.845 57.232 341.445 56.008 340.341 54.04C338.997 51.688 338.325 47.944 338.325 42.808V8.536Z" fill="#866A2D" />
        <path d="M362.168 54.616C361.256 54.04 360.8 53.128 360.8 51.88C360.8 50.632 361.712 48.736 363.536 46.192C364.064 45.376 364.904 44.968 366.056 44.968C367.256 44.968 368.864 45.568 370.88 46.768C372.896 47.92 374.72 48.496 376.352 48.496C379.28 48.496 380.744 47.92 380.744 46.768C380.744 45.856 379.136 45.184 375.92 44.752C372.896 44.32 369.896 43.192 366.92 41.368C365.528 40.504 364.376 39.16 363.464 37.336C362.552 35.464 362.096 33.256 362.096 30.712C362.096 23.128 367.304 19.336 377.72 19.336C381.128 19.336 384.632 20.152 388.232 21.784C389.912 22.552 390.752 23.512 390.752 24.664C390.752 25.816 390.224 27.232 389.168 28.912C388.112 30.592 387.032 31.432 385.928 31.432C385.352 31.432 384.272 31.072 382.688 30.352C381.152 29.632 379.472 29.272 377.648 29.272C374.816 29.272 373.4 29.8 373.4 30.856C373.4 32.296 375.032 33.232 378.296 33.664C381.464 34 384.536 34.912 387.512 36.4C388.904 37.072 390.056 38.248 390.968 39.928C391.928 41.56 392.408 43.624 392.408 46.12C392.408 48.616 391.928 50.752 390.968 52.528C390.056 54.256 388.76 55.552 387.08 56.416C384.008 57.904 380.144 58.648 375.488 58.648C370.88 58.648 366.44 57.304 362.168 54.616Z" fill="#866A2D" />
        <path d="M418.014 32.8L413.334 32.512V42.448C413.334 43.744 413.526 44.68 413.91 45.256C414.342 45.832 415.11 46.12 416.214 46.12C417.366 46.12 418.23 46.168 418.806 46.264C419.43 46.312 420.078 46.528 420.75 46.912C421.854 47.536 422.406 49.144 422.406 51.736C422.406 54.76 421.734 56.608 420.39 57.28C419.67 57.616 419.022 57.832 418.446 57.928C417.918 57.976 417.126 58 416.07 58C411.078 58 407.286 56.872 404.694 54.616C402.102 52.36 400.806 48.544 400.806 43.168V32.512C399.894 32.656 398.91 32.728 397.854 32.728C396.798 32.728 395.91 32.32 395.19 31.504C394.518 30.688 394.182 29.296 394.182 27.328C394.182 25.36 394.302 23.944 394.542 23.08C394.782 22.168 395.118 21.52 395.55 21.136C396.318 20.512 397.278 20.2 398.43 20.2L400.806 20.488V13.072C400.806 11.968 400.83 11.152 400.878 10.624C400.974 10.096 401.214 9.52 401.598 8.896C402.222 7.696 404.07 7.096 407.142 7.096C410.406 7.096 412.35 7.984 412.974 9.76C413.214 10.528 413.334 11.752 413.334 13.432V20.488C415.446 20.296 417.03 20.2 418.086 20.2C419.19 20.2 420.006 20.248 420.534 20.344C421.11 20.392 421.758 20.608 422.478 20.992C423.726 21.616 424.35 23.464 424.35 26.536C424.35 29.56 423.702 31.408 422.406 32.08C421.686 32.416 421.038 32.632 420.462 32.728C419.934 32.776 419.118 32.8 418.014 32.8Z" fill="#866A2D" />
        <path d="M463.495 34.528C463.495 37.456 462.751 39.64 461.263 41.08C459.823 42.472 458.215 43.168 456.439 43.168H439.375C439.375 44.512 440.167 45.64 441.751 46.552C443.335 47.464 444.919 47.92 446.503 47.92C449.287 47.92 451.471 47.632 453.055 47.056L453.847 46.768C454.999 46.24 455.959 45.976 456.727 45.976C458.263 45.976 459.583 47.056 460.687 49.216C461.311 50.512 461.623 51.616 461.623 52.528C461.623 56.8 456.511 58.936 446.287 58.936C442.735 58.936 439.567 58.336 436.783 57.136C434.047 55.888 431.911 54.256 430.375 52.24C427.351 48.352 425.839 44.008 425.839 39.208C425.839 33.16 427.783 28.336 431.671 24.736C435.607 21.088 440.503 19.264 446.359 19.264C453.031 19.264 457.927 21.616 461.047 26.32C462.679 28.816 463.495 31.552 463.495 34.528ZM448.303 36.616C450.127 36.616 451.039 35.848 451.039 34.312C451.039 33.208 450.607 32.32 449.743 31.648C448.927 30.976 447.727 30.64 446.143 30.64C444.607 30.64 443.071 31.288 441.535 32.584C439.999 33.832 439.231 35.176 439.231 36.616H448.303Z" fill="#866A2D" />
        <path d="M489.288 20.056C494.088 20.056 498.072 21.904 501.24 25.6C504.456 29.248 506.064 33.712 506.064 38.992V51.664C506.064 52.768 506.017 53.608 505.921 54.184C505.873 54.712 505.68 55.312 505.344 55.984C504.672 57.28 502.8 57.928 499.728 57.928C496.32 57.928 494.352 57.04 493.824 55.264C493.536 54.448 493.392 53.224 493.392 51.592V38.92C493.392 36.952 492.816 35.416 491.664 34.312C490.56 33.208 489.048 32.656 487.128 32.656C485.256 32.656 483.72 33.232 482.52 34.384C481.368 35.536 480.792 37.048 480.792 38.92V51.664C480.792 52.768 480.744 53.608 480.648 54.184C480.6 54.712 480.384 55.312 480 55.984C479.376 57.28 477.528 57.928 474.456 57.928C471.432 57.928 469.584 57.28 468.912 55.984C468.576 55.264 468.36 54.64 468.264 54.112C468.216 53.536 468.192 52.696 468.192 51.592V26.104C468.192 25.048 468.216 24.256 468.264 23.728C468.36 23.152 468.6 22.528 468.984 21.856C469.656 20.656 471.504 20.056 474.528 20.056C477.456 20.056 479.256 20.608 479.928 21.712C480.408 22.528 480.648 23.512 480.648 24.664C480.84 24.328 481.272 23.848 481.944 23.224C482.616 22.6 483.264 22.096 483.888 21.712C485.52 20.608 487.32 20.056 489.288 20.056Z" fill="#866A2D" />
        <path d="M33.336 7.968L52.776 48.144C53.592 49.776 54 51 54 51.816C54 53.544 52.608 55.104 49.824 56.496C48.192 57.312 46.896 57.72 45.936 57.72C45.024 57.72 44.256 57.504 43.632 57.072C43.056 56.64 42.624 56.184 42.336 55.704C42.096 55.224 41.736 54.504 41.256 53.544L37.512 45.768H17.568L13.824 53.544C13.344 54.504 12.96 55.2 12.672 55.632C12.432 56.064 12 56.52 11.376 57C10.8 57.432 10.032 57.648 9.07199 57.648C8.15999 57.648 6.88799 57.24 5.25599 56.424C2.47199 55.08 1.07999 53.544 1.07999 51.816C1.07999 51 1.48799 49.776 2.30399 48.144L21.744 7.896C22.272 6.792 23.064 5.904 24.12 5.232C25.224 4.56 26.376 4.224 27.576 4.224C30.168 4.224 32.088 5.472 33.336 7.968ZM27.504 25.248L22.752 35.112H32.328L27.504 25.248Z" fill="#BE9539" />
        <path d="M80.4679 3.288C80.8519 2.568 81.4999 2.064 82.4119 1.776C83.3239 1.488 84.5239 1.344 86.0119 1.344C87.5479 1.344 88.7719 1.488 89.6839 1.776C90.5959 2.064 91.2199 2.568 91.5559 3.288C91.9399 4.008 92.1559 4.656 92.2039 5.232C92.2999 5.76 92.3479 6.576 92.3479 7.68V50.664C92.3479 51.768 92.2999 52.608 92.2039 53.184C92.1559 53.712 91.9399 54.312 91.5559 54.984C90.8359 56.28 88.7959 56.928 85.4359 56.928C82.1239 56.928 80.2759 55.752 79.8919 53.4C77.8759 55.704 75.0679 56.856 71.4679 56.856C67.1479 56.856 63.2119 54.984 59.6599 51.24C56.1079 47.448 54.3319 43.056 54.3319 38.064C54.3319 33.024 56.1079 28.608 59.6599 24.816C63.2599 21.024 67.1959 19.128 71.4679 19.128C75.0199 19.128 77.7799 20.328 79.7479 22.728V7.608C79.7479 6.504 79.7719 5.688 79.8199 5.16C79.9159 4.584 80.1319 3.96 80.4679 3.288ZM68.8039 42.384C70.0519 43.68 71.5639 44.328 73.3399 44.328C75.1159 44.328 76.5799 43.68 77.7319 42.384C78.9319 41.088 79.5319 39.672 79.5319 38.136C79.5319 36.552 78.9559 35.088 77.8039 33.744C76.6999 32.4 75.1879 31.728 73.2679 31.728C71.3479 31.728 69.8119 32.4 68.6599 33.744C67.5079 35.04 66.9319 36.48 66.9319 38.064C66.9319 39.648 67.5559 41.088 68.8039 42.384Z" fill="#BE9539" />
        <path d="M122.707 23.088C122.995 20.4 124.891 19.056 128.395 19.056C130.267 19.056 131.659 19.2 132.571 19.488C133.483 19.776 134.107 20.28 134.443 21C134.827 21.72 135.043 22.368 135.091 22.944C135.187 23.472 135.235 24.288 135.235 25.392V50.592C135.235 51.696 135.187 52.536 135.091 53.112C135.043 53.64 134.851 54.264 134.515 54.984C133.843 56.232 132.187 56.856 129.547 56.856C126.955 56.856 125.203 56.544 124.291 55.92C123.427 55.248 122.923 54.288 122.779 53.04C121.003 55.584 118.027 56.856 113.851 56.856C109.723 56.856 105.883 54.96 102.331 51.168C98.7791 47.376 97.0031 42.984 97.0031 37.992C97.0031 32.952 98.7791 28.56 102.331 24.816C105.931 21.024 109.867 19.128 114.139 19.128C115.771 19.128 117.259 19.416 118.603 19.992C119.947 20.568 120.883 21.12 121.411 21.648C121.939 22.128 122.371 22.608 122.707 23.088ZM109.603 38.064C109.603 39.648 110.227 41.088 111.475 42.384C112.723 43.632 114.235 44.256 116.011 44.256C117.787 44.256 119.251 43.608 120.403 42.312C121.603 41.016 122.203 39.6 122.203 38.064C122.203 36.48 121.627 35.016 120.475 33.672C119.371 32.328 117.859 31.656 115.939 31.656C114.067 31.656 112.531 32.328 111.331 33.672C110.179 35.016 109.603 36.48 109.603 38.064Z" fill="#BE9539" />
        <path d="M153.358 24.096C155.614 20.688 158.326 18.984 161.494 18.984C166.39 18.984 170.038 21.072 172.438 25.248C172.966 24.528 173.59 23.784 174.31 23.016C175.078 22.2 176.278 21.336 177.91 20.424C179.542 19.464 181.222 18.984 182.95 18.984C186.79 18.984 190.006 20.472 192.598 23.448C195.19 26.376 196.486 31.248 196.486 38.064V50.664C196.486 51.768 196.438 52.608 196.342 53.184C196.294 53.712 196.078 54.336 195.694 55.056C195.07 56.352 193.222 57 190.15 57C187.126 57 185.278 56.328 184.606 54.984C184.27 54.264 184.054 53.64 183.958 53.112C183.91 52.536 183.886 51.696 183.886 50.592V37.992C183.886 33.816 182.398 31.728 179.422 31.728C177.742 31.728 176.59 32.28 175.966 33.384C175.39 34.488 175.102 36.048 175.102 38.064V50.664C175.102 51.816 175.054 52.656 174.958 53.184C174.91 53.712 174.694 54.336 174.31 55.056C173.638 56.352 171.766 57 168.694 57C165.67 57 163.822 56.328 163.15 54.984C162.814 54.264 162.598 53.64 162.502 53.112C162.454 52.536 162.43 51.696 162.43 50.592V37.992C162.43 33.816 160.942 31.728 157.966 31.728C155.086 31.728 153.646 33.816 153.646 37.992V50.736C153.646 51.84 153.598 52.68 153.502 53.256C153.454 53.784 153.238 54.408 152.854 55.128C152.134 56.376 150.262 57 147.238 57C144.214 57 142.366 56.352 141.694 55.056C141.358 54.336 141.142 53.712 141.046 53.184C140.998 52.656 140.974 51.816 140.974 50.664V25.32C140.974 24.216 140.998 23.4 141.046 22.872C141.142 22.296 141.382 21.672 141.766 21C142.486 19.704 144.19 19.056 146.878 19.056C149.566 19.056 151.318 19.488 152.134 20.352C152.95 21.216 153.358 22.464 153.358 24.096Z" fill="#BE9539" />
        <path d="M243.035 30.504C250.379 37.56 255.587 42.864 258.659 46.416C260.243 48.192 261.035 49.704 261.035 50.952C261.035 52.152 260.075 53.592 258.155 55.272C256.235 56.904 254.651 57.72 253.403 57.72C252.203 57.72 250.739 56.712 249.011 54.696L233.171 36.624V50.664C233.171 51.816 233.123 52.656 233.027 53.184C232.979 53.712 232.763 54.336 232.379 55.056C231.707 56.352 229.835 57 226.763 57C223.403 57 221.435 56.088 220.859 54.264C220.571 53.496 220.427 52.272 220.427 50.592V10.56C220.427 9.456 220.451 8.64 220.499 8.112C220.595 7.536 220.835 6.888 221.219 6.168C221.891 4.872 223.763 4.224 226.835 4.224C230.195 4.224 232.187 5.112 232.811 6.888C233.051 7.704 233.171 8.952 233.171 10.632V24.384C239.699 17.04 244.979 11.016 249.011 6.312C250.691 4.344 252.155 3.35999 253.403 3.35999C254.651 3.35999 256.235 4.2 258.155 5.88C260.075 7.512 261.035 8.952 261.035 10.2C261.035 11.4 260.315 12.84 258.875 14.52C256.091 17.736 251.771 22.152 245.915 27.768L243.035 30.504Z" fill="#BE9539" />
        <path d="M288.152 23.088C288.44 20.4 290.336 19.056 293.84 19.056C295.712 19.056 297.104 19.2 298.016 19.488C298.928 19.776 299.552 20.28 299.888 21C300.272 21.72 300.488 22.368 300.536 22.944C300.632 23.472 300.68 24.288 300.68 25.392V50.592C300.68 51.696 300.632 52.536 300.536 53.112C300.488 53.64 300.296 54.264 299.96 54.984C299.288 56.232 297.632 56.856 294.992 56.856C292.4 56.856 290.648 56.544 289.736 55.92C288.872 55.248 288.368 54.288 288.224 53.04C286.448 55.584 283.472 56.856 279.296 56.856C275.168 56.856 271.328 54.96 267.776 51.168C264.224 47.376 262.448 42.984 262.448 37.992C262.448 32.952 264.224 28.56 267.776 24.816C271.376 21.024 275.312 19.128 279.584 19.128C281.216 19.128 282.704 19.416 284.048 19.992C285.392 20.568 286.328 21.12 286.856 21.648C287.384 22.128 287.816 22.608 288.152 23.088ZM275.048 38.064C275.048 39.648 275.672 41.088 276.92 42.384C278.168 43.632 279.68 44.256 281.456 44.256C283.232 44.256 284.696 43.608 285.848 42.312C287.048 41.016 287.648 39.6 287.648 38.064C287.648 36.48 287.072 35.016 285.92 33.672C284.816 32.328 283.304 31.656 281.384 31.656C279.512 31.656 277.976 32.328 276.776 33.672C275.624 35.016 275.048 36.48 275.048 38.064Z" fill="#BE9539" />
        <path d="M332.195 19.488C333.107 19.776 333.851 20.28 334.427 21C335.051 21.672 335.363 22.776 335.363 24.312C335.363 25.848 334.907 27.528 333.995 29.352C333.083 31.176 331.763 32.088 330.035 32.088C329.171 32.088 328.331 31.896 327.515 31.512C326.747 31.128 325.715 30.936 324.419 30.936C323.123 30.936 321.899 31.392 320.747 32.304C319.643 33.216 319.091 34.32 319.091 35.616V50.736C319.091 51.84 319.043 52.68 318.947 53.256C318.899 53.784 318.683 54.408 318.299 55.128C317.579 56.376 315.707 57 312.683 57C310.379 57 308.723 56.592 307.715 55.776C306.947 55.104 306.515 54.072 306.419 52.68C306.419 52.2 306.419 51.504 306.419 50.592V25.32C306.419 24.216 306.443 23.4 306.491 22.872C306.587 22.296 306.803 21.672 307.139 21C307.811 19.704 309.683 19.056 312.755 19.056C315.635 19.056 317.435 19.608 318.155 20.712C318.683 21.48 318.947 22.272 318.947 23.088C319.187 22.752 319.523 22.344 319.955 21.864C320.435 21.384 321.419 20.736 322.907 19.92C324.395 19.104 325.691 18.696 326.795 18.696C327.947 18.696 328.907 18.768 329.675 18.912C330.443 19.008 331.283 19.2 332.195 19.488Z" fill="#BE9539" />
        <path d="M339.325 7.536C339.325 6.432 339.349 5.616 339.397 5.088C339.493 4.512 339.709 3.864 340.045 3.144C340.717 1.848 342.589 1.2 345.661 1.2C348.589 1.2 350.413 1.848 351.133 3.144C351.517 3.864 351.733 4.512 351.781 5.088C351.877 5.664 351.925 6.504 351.925 7.608V40.944C351.925 42.672 352.069 43.776 352.357 44.256C352.645 44.688 353.269 44.904 354.229 44.904C355.237 44.904 355.909 44.952 356.245 45.048C356.581 45.096 356.989 45.288 357.469 45.624C358.429 46.248 358.909 47.952 358.909 50.736C358.909 53.76 358.429 55.608 357.469 56.28C356.221 57.144 353.245 57.288 348.541 56.712C344.845 56.232 342.445 55.008 341.341 53.04C339.997 50.688 339.325 46.944 339.325 41.808V7.536Z" fill="#BE9539" />
        <path d="M363.168 53.616C362.256 53.04 361.8 52.128 361.8 50.88C361.8 49.632 362.712 47.736 364.536 45.192C365.064 44.376 365.904 43.968 367.056 43.968C368.256 43.968 369.864 44.568 371.88 45.768C373.896 46.92 375.72 47.496 377.352 47.496C380.28 47.496 381.744 46.92 381.744 45.768C381.744 44.856 380.136 44.184 376.92 43.752C373.896 43.32 370.896 42.192 367.92 40.368C366.528 39.504 365.376 38.16 364.464 36.336C363.552 34.464 363.096 32.256 363.096 29.712C363.096 22.128 368.304 18.336 378.72 18.336C382.128 18.336 385.632 19.152 389.232 20.784C390.912 21.552 391.752 22.512 391.752 23.664C391.752 24.816 391.224 26.232 390.168 27.912C389.112 29.592 388.032 30.432 386.928 30.432C386.352 30.432 385.272 30.072 383.688 29.352C382.152 28.632 380.472 28.272 378.648 28.272C375.816 28.272 374.4 28.8 374.4 29.856C374.4 31.296 376.032 32.232 379.296 32.664C382.464 33 385.536 33.912 388.512 35.4C389.904 36.072 391.056 37.248 391.968 38.928C392.928 40.56 393.408 42.624 393.408 45.12C393.408 47.616 392.928 49.752 391.968 51.528C391.056 53.256 389.76 54.552 388.08 55.416C385.008 56.904 381.144 57.648 376.488 57.648C371.88 57.648 367.44 56.304 363.168 53.616Z" fill="#BE9539" />
        <path d="M419.014 31.8L414.334 31.512V41.448C414.334 42.744 414.526 43.68 414.91 44.256C415.342 44.832 416.11 45.12 417.214 45.12C418.366 45.12 419.23 45.168 419.806 45.264C420.43 45.312 421.078 45.528 421.75 45.912C422.854 46.536 423.406 48.144 423.406 50.736C423.406 53.76 422.734 55.608 421.39 56.28C420.67 56.616 420.022 56.832 419.446 56.928C418.918 56.976 418.126 57 417.07 57C412.078 57 408.286 55.872 405.694 53.616C403.102 51.36 401.806 47.544 401.806 42.168V31.512C400.894 31.656 399.91 31.728 398.854 31.728C397.798 31.728 396.91 31.32 396.19 30.504C395.518 29.688 395.182 28.296 395.182 26.328C395.182 24.36 395.302 22.944 395.542 22.08C395.782 21.168 396.118 20.52 396.55 20.136C397.318 19.512 398.278 19.2 399.43 19.2L401.806 19.488V12.072C401.806 10.968 401.83 10.152 401.878 9.624C401.974 9.096 402.214 8.52 402.598 7.896C403.222 6.696 405.07 6.096 408.142 6.096C411.406 6.096 413.35 6.984 413.974 8.76C414.214 9.528 414.334 10.752 414.334 12.432V19.488C416.446 19.296 418.03 19.2 419.086 19.2C420.19 19.2 421.006 19.248 421.534 19.344C422.11 19.392 422.758 19.608 423.478 19.992C424.726 20.616 425.35 22.464 425.35 25.536C425.35 28.56 424.702 30.408 423.406 31.08C422.686 31.416 422.038 31.632 421.462 31.728C420.934 31.776 420.118 31.8 419.014 31.8Z" fill="#BE9539" />
        <path d="M464.495 33.528C464.495 36.456 463.751 38.64 462.263 40.08C460.823 41.472 459.215 42.168 457.439 42.168H440.375C440.375 43.512 441.167 44.64 442.751 45.552C444.335 46.464 445.919 46.92 447.503 46.92C450.287 46.92 452.471 46.632 454.055 46.056L454.847 45.768C455.999 45.24 456.959 44.976 457.727 44.976C459.263 44.976 460.583 46.056 461.687 48.216C462.311 49.512 462.623 50.616 462.623 51.528C462.623 55.8 457.511 57.936 447.287 57.936C443.735 57.936 440.567 57.336 437.783 56.136C435.047 54.888 432.911 53.256 431.375 51.24C428.351 47.352 426.839 43.008 426.839 38.208C426.839 32.16 428.783 27.336 432.671 23.736C436.607 20.088 441.503 18.264 447.359 18.264C454.031 18.264 458.927 20.616 462.047 25.32C463.679 27.816 464.495 30.552 464.495 33.528ZM449.303 35.616C451.127 35.616 452.039 34.848 452.039 33.312C452.039 32.208 451.607 31.32 450.743 30.648C449.927 29.976 448.727 29.64 447.143 29.64C445.607 29.64 444.071 30.288 442.535 31.584C440.999 32.832 440.231 34.176 440.231 35.616H449.303Z" fill="#BE9539" />
        <path d="M490.288 19.056C495.088 19.056 499.072 20.904 502.24 24.6C505.456 28.248 507.064 32.712 507.064 37.992V50.664C507.064 51.768 507.017 52.608 506.921 53.184C506.873 53.712 506.68 54.312 506.344 54.984C505.672 56.28 503.8 56.928 500.728 56.928C497.32 56.928 495.352 56.04 494.824 54.264C494.536 53.448 494.392 52.224 494.392 50.592V37.92C494.392 35.952 493.816 34.416 492.664 33.312C491.56 32.208 490.048 31.656 488.128 31.656C486.256 31.656 484.72 32.232 483.52 33.384C482.368 34.536 481.792 36.048 481.792 37.92V50.664C481.792 51.768 481.744 52.608 481.648 53.184C481.6 53.712 481.384 54.312 481 54.984C480.376 56.28 478.528 56.928 475.456 56.928C472.432 56.928 470.584 56.28 469.912 54.984C469.576 54.264 469.36 53.64 469.264 53.112C469.216 52.536 469.192 51.696 469.192 50.592V25.104C469.192 24.048 469.216 23.256 469.264 22.728C469.36 22.152 469.6 21.528 469.984 20.856C470.656 19.656 472.504 19.056 475.528 19.056C478.456 19.056 480.256 19.608 480.928 20.712C481.408 21.528 481.648 22.512 481.648 23.664C481.84 23.328 482.272 22.848 482.944 22.224C483.616 21.6 484.264 21.096 484.888 20.712C486.52 19.608 488.32 19.056 490.288 19.056Z" fill="#BE9539" />
        <path d="M35.336 6.968L54.776 47.144C55.592 48.776 56 50 56 50.816C56 52.544 54.608 54.104 51.824 55.496C50.192 56.312 48.896 56.72 47.936 56.72C47.024 56.72 46.256 56.504 45.632 56.072C45.056 55.64 44.624 55.184 44.336 54.704C44.096 54.224 43.736 53.504 43.256 52.544L39.512 44.768H19.568L15.824 52.544C15.344 53.504 14.96 54.2 14.672 54.632C14.432 55.064 14 55.52 13.376 56C12.8 56.432 12.032 56.648 11.072 56.648C10.16 56.648 8.88799 56.24 7.25599 55.424C4.47199 54.08 3.07999 52.544 3.07999 50.816C3.07999 50 3.48799 48.776 4.30399 47.144L23.744 6.896C24.272 5.792 25.064 4.904 26.12 4.232C27.224 3.56 28.376 3.224 29.576 3.224C32.168 3.224 34.088 4.472 35.336 6.968ZM29.504 24.248L24.752 34.112H34.328L29.504 24.248Z" fill="#FFCC59" />
        <path d="M82.4679 2.288C82.8519 1.568 83.4999 1.064 84.4119 0.775998C85.3239 0.487996 86.5239 0.343995 88.0119 0.343995C89.5479 0.343995 90.7719 0.487996 91.6839 0.775998C92.5959 1.064 93.2199 1.568 93.5559 2.288C93.9399 3.008 94.1559 3.656 94.2039 4.232C94.2999 4.76 94.3479 5.576 94.3479 6.68V49.664C94.3479 50.768 94.2999 51.608 94.2039 52.184C94.1559 52.712 93.9399 53.312 93.5559 53.984C92.8359 55.28 90.7959 55.928 87.4359 55.928C84.1239 55.928 82.2759 54.752 81.8919 52.4C79.8759 54.704 77.0679 55.856 73.4679 55.856C69.1479 55.856 65.2119 53.984 61.6599 50.24C58.1079 46.448 56.3319 42.056 56.3319 37.064C56.3319 32.024 58.1079 27.608 61.6599 23.816C65.2599 20.024 69.1959 18.128 73.4679 18.128C77.0199 18.128 79.7799 19.328 81.7479 21.728V6.608C81.7479 5.504 81.7719 4.688 81.8199 4.16C81.9159 3.584 82.1319 2.96 82.4679 2.288ZM70.8039 41.384C72.0519 42.68 73.5639 43.328 75.3399 43.328C77.1159 43.328 78.5799 42.68 79.7319 41.384C80.9319 40.088 81.5319 38.672 81.5319 37.136C81.5319 35.552 80.9559 34.088 79.8039 32.744C78.6999 31.4 77.1879 30.728 75.2679 30.728C73.3479 30.728 71.8119 31.4 70.6599 32.744C69.5079 34.04 68.9319 35.48 68.9319 37.064C68.9319 38.648 69.5559 40.088 70.8039 41.384Z" fill="#FFCC59" />
        <path d="M124.707 22.088C124.995 19.4 126.891 18.056 130.395 18.056C132.267 18.056 133.659 18.2 134.571 18.488C135.483 18.776 136.107 19.28 136.443 20C136.827 20.72 137.043 21.368 137.091 21.944C137.187 22.472 137.235 23.288 137.235 24.392V49.592C137.235 50.696 137.187 51.536 137.091 52.112C137.043 52.64 136.851 53.264 136.515 53.984C135.843 55.232 134.187 55.856 131.547 55.856C128.955 55.856 127.203 55.544 126.291 54.92C125.427 54.248 124.923 53.288 124.779 52.04C123.003 54.584 120.027 55.856 115.851 55.856C111.723 55.856 107.883 53.96 104.331 50.168C100.779 46.376 99.0031 41.984 99.0031 36.992C99.0031 31.952 100.779 27.56 104.331 23.816C107.931 20.024 111.867 18.128 116.139 18.128C117.771 18.128 119.259 18.416 120.603 18.992C121.947 19.568 122.883 20.12 123.411 20.648C123.939 21.128 124.371 21.608 124.707 22.088ZM111.603 37.064C111.603 38.648 112.227 40.088 113.475 41.384C114.723 42.632 116.235 43.256 118.011 43.256C119.787 43.256 121.251 42.608 122.403 41.312C123.603 40.016 124.203 38.6 124.203 37.064C124.203 35.48 123.627 34.016 122.475 32.672C121.371 31.328 119.859 30.656 117.939 30.656C116.067 30.656 114.531 31.328 113.331 32.672C112.179 34.016 111.603 35.48 111.603 37.064Z" fill="#FFCC59" />
        <path d="M155.358 23.096C157.614 19.688 160.326 17.984 163.494 17.984C168.39 17.984 172.038 20.072 174.438 24.248C174.966 23.528 175.59 22.784 176.31 22.016C177.078 21.2 178.278 20.336 179.91 19.424C181.542 18.464 183.222 17.984 184.95 17.984C188.79 17.984 192.006 19.472 194.598 22.448C197.19 25.376 198.486 30.248 198.486 37.064V49.664C198.486 50.768 198.438 51.608 198.342 52.184C198.294 52.712 198.078 53.336 197.694 54.056C197.07 55.352 195.222 56 192.15 56C189.126 56 187.278 55.328 186.606 53.984C186.27 53.264 186.054 52.64 185.958 52.112C185.91 51.536 185.886 50.696 185.886 49.592V36.992C185.886 32.816 184.398 30.728 181.422 30.728C179.742 30.728 178.59 31.28 177.966 32.384C177.39 33.488 177.102 35.048 177.102 37.064V49.664C177.102 50.816 177.054 51.656 176.958 52.184C176.91 52.712 176.694 53.336 176.31 54.056C175.638 55.352 173.766 56 170.694 56C167.67 56 165.822 55.328 165.15 53.984C164.814 53.264 164.598 52.64 164.502 52.112C164.454 51.536 164.43 50.696 164.43 49.592V36.992C164.43 32.816 162.942 30.728 159.966 30.728C157.086 30.728 155.646 32.816 155.646 36.992V49.736C155.646 50.84 155.598 51.68 155.502 52.256C155.454 52.784 155.238 53.408 154.854 54.128C154.134 55.376 152.262 56 149.238 56C146.214 56 144.366 55.352 143.694 54.056C143.358 53.336 143.142 52.712 143.046 52.184C142.998 51.656 142.974 50.816 142.974 49.664V24.32C142.974 23.216 142.998 22.4 143.046 21.872C143.142 21.296 143.382 20.672 143.766 20C144.486 18.704 146.19 18.056 148.878 18.056C151.566 18.056 153.318 18.488 154.134 19.352C154.95 20.216 155.358 21.464 155.358 23.096Z" fill="#FFCC59" />
        <path d="M245.035 29.504C252.379 36.56 257.587 41.864 260.659 45.416C262.243 47.192 263.035 48.704 263.035 49.952C263.035 51.152 262.075 52.592 260.155 54.272C258.235 55.904 256.651 56.72 255.403 56.72C254.203 56.72 252.739 55.712 251.011 53.696L235.171 35.624V49.664C235.171 50.816 235.123 51.656 235.027 52.184C234.979 52.712 234.763 53.336 234.379 54.056C233.707 55.352 231.835 56 228.763 56C225.403 56 223.435 55.088 222.859 53.264C222.571 52.496 222.427 51.272 222.427 49.592V9.56C222.427 8.456 222.451 7.64 222.499 7.112C222.595 6.536 222.835 5.888 223.219 5.168C223.891 3.872 225.763 3.224 228.835 3.224C232.195 3.224 234.187 4.112 234.811 5.888C235.051 6.704 235.171 7.952 235.171 9.632V23.384C241.699 16.04 246.979 10.016 251.011 5.312C252.691 3.344 254.155 2.35999 255.403 2.35999C256.651 2.35999 258.235 3.2 260.155 4.88C262.075 6.512 263.035 7.952 263.035 9.2C263.035 10.4 262.315 11.84 260.875 13.52C258.091 16.736 253.771 21.152 247.915 26.768L245.035 29.504Z" fill="#FFCC59" />
        <path d="M290.152 22.088C290.44 19.4 292.336 18.056 295.84 18.056C297.712 18.056 299.104 18.2 300.016 18.488C300.928 18.776 301.552 19.28 301.888 20C302.272 20.72 302.488 21.368 302.536 21.944C302.632 22.472 302.68 23.288 302.68 24.392V49.592C302.68 50.696 302.632 51.536 302.536 52.112C302.488 52.64 302.296 53.264 301.96 53.984C301.288 55.232 299.632 55.856 296.992 55.856C294.4 55.856 292.648 55.544 291.736 54.92C290.872 54.248 290.368 53.288 290.224 52.04C288.448 54.584 285.472 55.856 281.296 55.856C277.168 55.856 273.328 53.96 269.776 50.168C266.224 46.376 264.448 41.984 264.448 36.992C264.448 31.952 266.224 27.56 269.776 23.816C273.376 20.024 277.312 18.128 281.584 18.128C283.216 18.128 284.704 18.416 286.048 18.992C287.392 19.568 288.328 20.12 288.856 20.648C289.384 21.128 289.816 21.608 290.152 22.088ZM277.048 37.064C277.048 38.648 277.672 40.088 278.92 41.384C280.168 42.632 281.68 43.256 283.456 43.256C285.232 43.256 286.696 42.608 287.848 41.312C289.048 40.016 289.648 38.6 289.648 37.064C289.648 35.48 289.072 34.016 287.92 32.672C286.816 31.328 285.304 30.656 283.384 30.656C281.512 30.656 279.976 31.328 278.776 32.672C277.624 34.016 277.048 35.48 277.048 37.064Z" fill="#FFCC59" />
        <path d="M334.195 18.488C335.107 18.776 335.851 19.28 336.427 20C337.051 20.672 337.363 21.776 337.363 23.312C337.363 24.848 336.907 26.528 335.995 28.352C335.083 30.176 333.763 31.088 332.035 31.088C331.171 31.088 330.331 30.896 329.515 30.512C328.747 30.128 327.715 29.936 326.419 29.936C325.123 29.936 323.899 30.392 322.747 31.304C321.643 32.216 321.091 33.32 321.091 34.616V49.736C321.091 50.84 321.043 51.68 320.947 52.256C320.899 52.784 320.683 53.408 320.299 54.128C319.579 55.376 317.707 56 314.683 56C312.379 56 310.723 55.592 309.715 54.776C308.947 54.104 308.515 53.072 308.419 51.68C308.419 51.2 308.419 50.504 308.419 49.592V24.32C308.419 23.216 308.443 22.4 308.491 21.872C308.587 21.296 308.803 20.672 309.139 20C309.811 18.704 311.683 18.056 314.755 18.056C317.635 18.056 319.435 18.608 320.155 19.712C320.683 20.48 320.947 21.272 320.947 22.088C321.187 21.752 321.523 21.344 321.955 20.864C322.435 20.384 323.419 19.736 324.907 18.92C326.395 18.104 327.691 17.696 328.795 17.696C329.947 17.696 330.907 17.768 331.675 17.912C332.443 18.008 333.283 18.2 334.195 18.488Z" fill="#FFCC59" />
        <path d="M341.325 6.536C341.325 5.432 341.349 4.616 341.397 4.088C341.493 3.512 341.709 2.864 342.045 2.144C342.717 0.847997 344.589 0.199997 347.661 0.199997C350.589 0.199997 352.413 0.847997 353.133 2.144C353.517 2.864 353.733 3.512 353.781 4.088C353.877 4.664 353.925 5.504 353.925 6.608V39.944C353.925 41.672 354.069 42.776 354.357 43.256C354.645 43.688 355.269 43.904 356.229 43.904C357.237 43.904 357.909 43.952 358.245 44.048C358.581 44.096 358.989 44.288 359.469 44.624C360.429 45.248 360.909 46.952 360.909 49.736C360.909 52.76 360.429 54.608 359.469 55.28C358.221 56.144 355.245 56.288 350.541 55.712C346.845 55.232 344.445 54.008 343.341 52.04C341.997 49.688 341.325 45.944 341.325 40.808V6.536Z" fill="#FFCC59" />
        <path d="M365.168 52.616C364.256 52.04 363.8 51.128 363.8 49.88C363.8 48.632 364.712 46.736 366.536 44.192C367.064 43.376 367.904 42.968 369.056 42.968C370.256 42.968 371.864 43.568 373.88 44.768C375.896 45.92 377.72 46.496 379.352 46.496C382.28 46.496 383.744 45.92 383.744 44.768C383.744 43.856 382.136 43.184 378.92 42.752C375.896 42.32 372.896 41.192 369.92 39.368C368.528 38.504 367.376 37.16 366.464 35.336C365.552 33.464 365.096 31.256 365.096 28.712C365.096 21.128 370.304 17.336 380.72 17.336C384.128 17.336 387.632 18.152 391.232 19.784C392.912 20.552 393.752 21.512 393.752 22.664C393.752 23.816 393.224 25.232 392.168 26.912C391.112 28.592 390.032 29.432 388.928 29.432C388.352 29.432 387.272 29.072 385.688 28.352C384.152 27.632 382.472 27.272 380.648 27.272C377.816 27.272 376.4 27.8 376.4 28.856C376.4 30.296 378.032 31.232 381.296 31.664C384.464 32 387.536 32.912 390.512 34.4C391.904 35.072 393.056 36.248 393.968 37.928C394.928 39.56 395.408 41.624 395.408 44.12C395.408 46.616 394.928 48.752 393.968 50.528C393.056 52.256 391.76 53.552 390.08 54.416C387.008 55.904 383.144 56.648 378.488 56.648C373.88 56.648 369.44 55.304 365.168 52.616Z" fill="#FFCC59" />
        <path d="M421.014 30.8L416.334 30.512V40.448C416.334 41.744 416.526 42.68 416.91 43.256C417.342 43.832 418.11 44.12 419.214 44.12C420.366 44.12 421.23 44.168 421.806 44.264C422.43 44.312 423.078 44.528 423.75 44.912C424.854 45.536 425.406 47.144 425.406 49.736C425.406 52.76 424.734 54.608 423.39 55.28C422.67 55.616 422.022 55.832 421.446 55.928C420.918 55.976 420.126 56 419.07 56C414.078 56 410.286 54.872 407.694 52.616C405.102 50.36 403.806 46.544 403.806 41.168V30.512C402.894 30.656 401.91 30.728 400.854 30.728C399.798 30.728 398.91 30.32 398.19 29.504C397.518 28.688 397.182 27.296 397.182 25.328C397.182 23.36 397.302 21.944 397.542 21.08C397.782 20.168 398.118 19.52 398.55 19.136C399.318 18.512 400.278 18.2 401.43 18.2L403.806 18.488V11.072C403.806 9.968 403.83 9.152 403.878 8.624C403.974 8.096 404.214 7.52 404.598 6.896C405.222 5.696 407.07 5.096 410.142 5.096C413.406 5.096 415.35 5.984 415.974 7.76C416.214 8.528 416.334 9.752 416.334 11.432V18.488C418.446 18.296 420.03 18.2 421.086 18.2C422.19 18.2 423.006 18.248 423.534 18.344C424.11 18.392 424.758 18.608 425.478 18.992C426.726 19.616 427.35 21.464 427.35 24.536C427.35 27.56 426.702 29.408 425.406 30.08C424.686 30.416 424.038 30.632 423.462 30.728C422.934 30.776 422.118 30.8 421.014 30.8Z" fill="#FFCC59" />
        <path d="M466.495 32.528C466.495 35.456 465.751 37.64 464.263 39.08C462.823 40.472 461.215 41.168 459.439 41.168H442.375C442.375 42.512 443.167 43.64 444.751 44.552C446.335 45.464 447.919 45.92 449.503 45.92C452.287 45.92 454.471 45.632 456.055 45.056L456.847 44.768C457.999 44.24 458.959 43.976 459.727 43.976C461.263 43.976 462.583 45.056 463.687 47.216C464.311 48.512 464.623 49.616 464.623 50.528C464.623 54.8 459.511 56.936 449.287 56.936C445.735 56.936 442.567 56.336 439.783 55.136C437.047 53.888 434.911 52.256 433.375 50.24C430.351 46.352 428.839 42.008 428.839 37.208C428.839 31.16 430.783 26.336 434.671 22.736C438.607 19.088 443.503 17.264 449.359 17.264C456.031 17.264 460.927 19.616 464.047 24.32C465.679 26.816 466.495 29.552 466.495 32.528ZM451.303 34.616C453.127 34.616 454.039 33.848 454.039 32.312C454.039 31.208 453.607 30.32 452.743 29.648C451.927 28.976 450.727 28.64 449.143 28.64C447.607 28.64 446.071 29.288 444.535 30.584C442.999 31.832 442.231 33.176 442.231 34.616H451.303Z" fill="#FFCC59" />
        <path d="M492.288 18.056C497.088 18.056 501.072 19.904 504.24 23.6C507.456 27.248 509.064 31.712 509.064 36.992V49.664C509.064 50.768 509.017 51.608 508.921 52.184C508.873 52.712 508.68 53.312 508.344 53.984C507.672 55.28 505.8 55.928 502.728 55.928C499.32 55.928 497.352 55.04 496.824 53.264C496.536 52.448 496.392 51.224 496.392 49.592V36.92C496.392 34.952 495.816 33.416 494.664 32.312C493.56 31.208 492.048 30.656 490.128 30.656C488.256 30.656 486.72 31.232 485.52 32.384C484.368 33.536 483.792 35.048 483.792 36.92V49.664C483.792 50.768 483.744 51.608 483.648 52.184C483.6 52.712 483.384 53.312 483 53.984C482.376 55.28 480.528 55.928 477.456 55.928C474.432 55.928 472.584 55.28 471.912 53.984C471.576 53.264 471.36 52.64 471.264 52.112C471.216 51.536 471.192 50.696 471.192 49.592V24.104C471.192 23.048 471.216 22.256 471.264 21.728C471.36 21.152 471.6 20.528 471.984 19.856C472.656 18.656 474.504 18.056 477.528 18.056C480.456 18.056 482.256 18.608 482.928 19.712C483.408 20.528 483.648 21.512 483.648 22.664C483.84 22.328 484.272 21.848 484.944 21.224C485.616 20.6 486.264 20.096 486.888 19.712C488.52 18.608 490.32 18.056 492.288 18.056Z" fill="#FFCC59" />
</svg>