<svg id="eA9wj1iRWsX1" xmlns="http://www.w3.org/2000/svg" xmlns:xlink="http://www.w3.org/1999/xlink" viewBox="0 0 510 59" shape-rendering="geometricPrecision" text-rendering="geometricPrecision"><style><![CDATA[#eA9wj1iRWsX2_to {animation: eA9wj1iRWsX2_to__to 1300ms linear infinite normal forwards}@keyframes eA9wj1iRWsX2_to__to { 0% {transform: translate(488.627991px,37.992001px)} 84.615385% {transform: translate(488.627991px,37.992001px)} 92.307692% {transform: translate(488.626005px,32.548000px)} 100% {transform: translate(488.627991px,37.992001px)}} #eA9wj1iRWsX6_to {animation: eA9wj1iRWsX6_to__to 1300ms linear infinite normal forwards}@keyframes eA9wj1iRWsX6_to__to { 0% {transform: translate(446.166992px,38.100000px)} 76.923077% {transform: translate(446.166992px,38.100000px)} 84.615385% {transform: translate(446.168003px,30.968000px)} 92.307692% {transform: translate(446.166992px,38.100000px)} 100% {transform: translate(446.166992px,38.100000px)}} #eA9wj1iRWsX10_to {animation: eA9wj1iRWsX10_to__to 1300ms linear infinite normal forwards}@keyframes eA9wj1iRWsX10_to__to { 0% {transform: translate(410.766006px,31.548000px)} 69.230769% {transform: translate(410.766006px,31.548000px)} 76.923077% {transform: translate(410.764000px,27.652000px)} 84.615385% {transform: translate(410.766006px,31.548000px)} 100% {transform: translate(410.766006px,31.548000px)}} #eA9wj1iRWsX14_to {animation: eA9wj1iRWsX14_to__to 1300ms linear infinite normal forwards}@keyframes eA9wj1iRWsX14_to__to { 0% {transform: translate(378.103989px,37.991999px)} 61.538462% {transform: translate(378.103989px,37.991999px)} 69.230769% {transform: translate(378.104001px,32.548000px)} 76.923077% {transform: translate(378.103989px,37.991999px)} 100% {transform: translate(378.103989px,37.991999px)}} #eA9wj1iRWsX18_to {animation: eA9wj1iRWsX18_to__to 1300ms linear infinite normal forwards}@keyframes eA9wj1iRWsX18_to__to { 0% {transform: translate(349.617004px,29.128798px)} 53.846154% {transform: translate(349.617004px,29.128798px)} 61.538462% {transform: translate(349.621992px,20.056000px)} 69.230769% {transform: translate(349.617004px,29.128798px)} 100% {transform: translate(349.617004px,29.128798px)}} #eA9wj1iRWsX22_to {animation: eA9wj1iRWsX22_to__to 1300ms linear infinite normal forwards}@keyframes eA9wj1iRWsX22_to__to { 0% {transform: translate(321.391006px,37.848000px)} 46.153846% {transform: translate(321.391006px,37.848000px)} 53.846154% {transform: translate(321.391006px,32.548000px)} 61.538462% {transform: translate(321.391006px,37.848000px)} 100% {transform: translate(321.391006px,37.848000px)}} #eA9wj1iRWsX26_to {animation: eA9wj1iRWsX26_to__to 1300ms linear infinite normal forwards}@keyframes eA9wj1iRWsX26_to__to { 0% {transform: translate(282.063995px,37.955999px)} 38.461538% {transform: translate(282.063995px,37.955999px)} 46.153846% {transform: translate(282.065997px,32.548000px)} 53.846154% {transform: translate(282.063995px,37.955999px)} 100% {transform: translate(282.063995px,37.955999px)}} #eA9wj1iRWsX30_to {animation: eA9wj1iRWsX30_to__to 1300ms linear infinite normal forwards}@keyframes eA9wj1iRWsX30_to__to { 0% {transform: translate(241.231003px,30.539996px)} 30.769231% {transform: translate(241.231003px,30.539996px)} 38.461538% {transform: translate(241.234001px,27.675994px)} 46.153846% {transform: translate(241.231003px,30.539996px)} 100% {transform: translate(241.231003px,30.539996px)}} #eA9wj1iRWsX34_to {animation: eA9wj1iRWsX34_to__to 1300ms linear infinite normal forwards}@keyframes eA9wj1iRWsX34_to__to { 0% {transform: translate(169.229996px,37.991999px)} 23.076923% {transform: translate(169.229996px,37.991999px)} 30.769231% {transform: translate(169.225997px,32.548000px)} 38.461538% {transform: translate(169.229996px,37.991999px)} 100% {transform: translate(169.229996px,37.991999px)}} #eA9wj1iRWsX38_to {animation: eA9wj1iRWsX38_to__to 1300ms linear infinite normal forwards}@keyframes eA9wj1iRWsX38_to__to { 0% {transform: translate(116.619049px,37.955999px)} 15.384615% {transform: translate(116.619049px,37.955999px)} 23.076923% {transform: translate(116.615952px,32.548000px)} 30.769231% {transform: translate(116.619049px,37.955999px)} 100% {transform: translate(116.619049px,37.955999px)}} #eA9wj1iRWsX42_to {animation: eA9wj1iRWsX42_to__to 1300ms linear infinite normal forwards}@keyframes eA9wj1iRWsX42_to__to { 0% {transform: translate(73.839901px,29.135999px)} 7.692308% {transform: translate(73.839901px,29.135999px)} 15.384615% {transform: translate(73.837999px,20.056000px)} 23.076923% {transform: translate(73.839901px,29.135999px)} 100% {transform: translate(73.839901px,29.135999px)}} #eA9wj1iRWsX46_to {animation: eA9wj1iRWsX46_to__to 1300ms linear infinite normal forwards}@keyframes eA9wj1iRWsX46_to__to { 0% {transform: translate(28.039994px,30.972001px);animation-timing-function: cubic-bezier(0.420000,0,0.580000,1)} 7.692308% {transform: translate(28.040007px,28.283916px)} 15.384615% {transform: translate(28.040007px,30.968001px)} 100% {transform: translate(28.040007px,30.968001px)}}]]></style><g id="eA9wj1iRWsX2_to" transform="translate(488.627991,37.992001)"><g id="eA9wj1iRWsX2" transform="translate(-488.627991,-37.992001)"><path id="eA9wj1iRWsX3" d="M489.288000,20.056000C494.088000,20.056000,498.072000,21.904000,501.240000,25.600000C504.456000,29.248000,506.064000,33.712000,506.064000,38.992000L506.064000,51.664000C506.064000,52.768000,506.017000,53.608000,505.921000,54.184000C505.873000,54.712000,505.680000,55.312000,505.344000,55.984000C504.672000,57.280000,502.800000,57.928000,499.728000,57.928000C496.320000,57.928000,494.352000,57.040000,493.824000,55.264000C493.536000,54.448000,493.392000,53.224000,493.392000,51.592000L493.392000,38.920000C493.392000,36.952000,492.816000,35.416000,491.664000,34.312000C490.560000,33.208000,489.048000,32.656000,487.128000,32.656000C485.256000,32.656000,483.720000,33.232000,482.520000,34.384000C481.368000,35.536000,480.792000,37.048000,480.792000,38.920000L480.792000,51.664000C480.792000,52.768000,480.744000,53.608000,480.648000,54.184000C480.600000,54.712000,480.384000,55.312000,480,55.984000C479.376000,57.280000,477.528000,57.928000,474.456000,57.928000C471.432000,57.928000,469.584000,57.280000,468.912000,55.984000C468.576000,55.264000,468.360000,54.640000,468.264000,54.112000C468.216000,53.536000,468.192000,52.696000,468.192000,51.592000L468.192000,26.104000C468.192000,25.048000,468.216000,24.256000,468.264000,23.728000C468.360000,23.152000,468.600000,22.528000,468.984000,21.856000C469.656000,20.656000,471.504000,20.056000,474.528000,20.056000C477.456000,20.056000,479.256000,20.608000,479.928000,21.712000C480.408000,22.528000,480.648000,23.512000,480.648000,24.664000C480.840000,24.328000,481.272000,23.848000,481.944000,23.224000C482.616000,22.600000,483.264000,22.096000,483.888000,21.712000C485.520000,20.608000,487.320000,20.056000,489.288000,20.056000Z" fill="rgb(134,106,45)" stroke="none" stroke-width="1" stroke-miterlimit="1"/><path id="eA9wj1iRWsX4" d="M490.288000,19.056000C495.088000,19.056000,499.072000,20.904000,502.240000,24.600000C505.456000,28.248000,507.064000,32.712000,507.064000,37.992000L507.064000,50.664000C507.064000,51.768000,507.017000,52.608000,506.921000,53.184000C506.873000,53.712000,506.680000,54.312000,506.344000,54.984000C505.672000,56.280000,503.800000,56.928000,500.728000,56.928000C497.320000,56.928000,495.352000,56.040000,494.824000,54.264000C494.536000,53.448000,494.392000,52.224000,494.392000,50.592000L494.392000,37.920000C494.392000,35.952000,493.816000,34.416000,492.664000,33.312000C491.560000,32.208000,490.048000,31.656000,488.128000,31.656000C486.256000,31.656000,484.720000,32.232000,483.520000,33.384000C482.368000,34.536000,481.792000,36.048000,481.792000,37.920000L481.792000,50.664000C481.792000,51.768000,481.744000,52.608000,481.648000,53.184000C481.600000,53.712000,481.384000,54.312000,481,54.984000C480.376000,56.280000,478.528000,56.928000,475.456000,56.928000C472.432000,56.928000,470.584000,56.280000,469.912000,54.984000C469.576000,54.264000,469.360000,53.640000,469.264000,53.112000C469.216000,52.536000,469.192000,51.696000,469.192000,50.592000L469.192000,25.104000C469.192000,24.048000,469.216000,23.256000,469.264000,22.728000C469.360000,22.152000,469.600000,21.528000,469.984000,20.856000C470.656000,19.656000,472.504000,19.056000,475.528000,19.056000C478.456000,19.056000,480.256000,19.608000,480.928000,20.712000C481.408000,21.528000,481.648000,22.512000,481.648000,23.664000C481.840000,23.328000,482.272000,22.848000,482.944000,22.224000C483.616000,21.600000,484.264000,21.096000,484.888000,20.712000C486.520000,19.608000,488.320000,19.056000,490.288000,19.056000Z" fill="rgb(190,149,57)" stroke="none" stroke-width="1" stroke-miterlimit="1"/><path id="eA9wj1iRWsX5" d="M492.288000,18.056000C497.088000,18.056000,501.072000,19.904000,504.240000,23.600000C507.456000,27.248000,509.064000,31.712000,509.064000,36.992000L509.064000,49.664000C509.064000,50.768000,509.017000,51.608000,508.921000,52.184000C508.873000,52.712000,508.680000,53.312000,508.344000,53.984000C507.672000,55.280000,505.800000,55.928000,502.728000,55.928000C499.320000,55.928000,497.352000,55.040000,496.824000,53.264000C496.536000,52.448000,496.392000,51.224000,496.392000,49.592000L496.392000,36.920000C496.392000,34.952000,495.816000,33.416000,494.664000,32.312000C493.560000,31.208000,492.048000,30.656000,490.128000,30.656000C488.256000,30.656000,486.720000,31.232000,485.520000,32.384000C484.368000,33.536000,483.792000,35.048000,483.792000,36.920000L483.792000,49.664000C483.792000,50.768000,483.744000,51.608000,483.648000,52.184000C483.600000,52.712000,483.384000,53.312000,483,53.984000C482.376000,55.280000,480.528000,55.928000,477.456000,55.928000C474.432000,55.928000,472.584000,55.280000,471.912000,53.984000C471.576000,53.264000,471.360000,52.640000,471.264000,52.112000C471.216000,51.536000,471.192000,50.696000,471.192000,49.592000L471.192000,24.104000C471.192000,23.048000,471.216000,22.256000,471.264000,21.728000C471.360000,21.152000,471.600000,20.528000,471.984000,19.856000C472.656000,18.656000,474.504000,18.056000,477.528000,18.056000C480.456000,18.056000,482.256000,18.608000,482.928000,19.712000C483.408000,20.528000,483.648000,21.512000,483.648000,22.664000C483.840000,22.328000,484.272000,21.848000,484.944000,21.224000C485.616000,20.600000,486.264000,20.096000,486.888000,19.712000C488.520000,18.608000,490.320000,18.056000,492.288000,18.056000Z" fill="rgb(255,204,89)" stroke="none" stroke-width="1" stroke-miterlimit="1"/></g></g><g id="eA9wj1iRWsX6_to" transform="translate(446.166992,38.100000)"><g id="eA9wj1iRWsX6" transform="translate(-446.166992,-38.100000)"><path id="eA9wj1iRWsX7" d="M463.495000,34.528000C463.495000,37.456000,462.751000,39.640000,461.263000,41.080000C459.823000,42.472000,458.215000,43.168000,456.439000,43.168000L439.375000,43.168000C439.375000,44.512000,440.167000,45.640000,441.751000,46.552000C443.335000,47.464000,444.919000,47.920000,446.503000,47.920000C449.287000,47.920000,451.471000,47.632000,453.055000,47.056000L453.847000,46.768000C454.999000,46.240000,455.959000,45.976000,456.727000,45.976000C458.263000,45.976000,459.583000,47.056000,460.687000,49.216000C461.311000,50.512000,461.623000,51.616000,461.623000,52.528000C461.623000,56.800000,456.511000,58.936000,446.287000,58.936000C442.735000,58.936000,439.567000,58.336000,436.783000,57.136000C434.047000,55.888000,431.911000,54.256000,430.375000,52.240000C427.351000,48.352000,425.839000,44.008000,425.839000,39.208000C425.839000,33.160000,427.783000,28.336000,431.671000,24.736000C435.607000,21.088000,440.503000,19.264000,446.359000,19.264000C453.031000,19.264000,457.927000,21.616000,461.047000,26.320000C462.679000,28.816000,463.495000,31.552000,463.495000,34.528000ZM448.303000,36.616000C450.127000,36.616000,451.039000,35.848000,451.039000,34.312000C451.039000,33.208000,450.607000,32.320000,449.743000,31.648000C448.927000,30.976000,447.727000,30.640000,446.143000,30.640000C444.607000,30.640000,443.071000,31.288000,441.535000,32.584000C439.999000,33.832000,439.231000,35.176000,439.231000,36.616000L448.303000,36.616000Z" fill="rgb(134,106,45)" stroke="none" stroke-width="1" stroke-miterlimit="1"/><path id="eA9wj1iRWsX8" d="M464.495000,33.528000C464.495000,36.456000,463.751000,38.640000,462.263000,40.080000C460.823000,41.472000,459.215000,42.168000,457.439000,42.168000L440.375000,42.168000C440.375000,43.512000,441.167000,44.640000,442.751000,45.552000C444.335000,46.464000,445.919000,46.920000,447.503000,46.920000C450.287000,46.920000,452.471000,46.632000,454.055000,46.056000L454.847000,45.768000C455.999000,45.240000,456.959000,44.976000,457.727000,44.976000C459.263000,44.976000,460.583000,46.056000,461.687000,48.216000C462.311000,49.512000,462.623000,50.616000,462.623000,51.528000C462.623000,55.800000,457.511000,57.936000,447.287000,57.936000C443.735000,57.936000,440.567000,57.336000,437.783000,56.136000C435.047000,54.888000,432.911000,53.256000,431.375000,51.240000C428.351000,47.352000,426.839000,43.008000,426.839000,38.208000C426.839000,32.160000,428.783000,27.336000,432.671000,23.736000C436.607000,20.088000,441.503000,18.264000,447.359000,18.264000C454.031000,18.264000,458.927000,20.616000,462.047000,25.320000C463.679000,27.816000,464.495000,30.552000,464.495000,33.528000ZM449.303000,35.616000C451.127000,35.616000,452.039000,34.848000,452.039000,33.312000C452.039000,32.208000,451.607000,31.320000,450.743000,30.648000C449.927000,29.976000,448.727000,29.640000,447.143000,29.640000C445.607000,29.640000,444.071000,30.288000,442.535000,31.584000C440.999000,32.832000,440.231000,34.176000,440.231000,35.616000L449.303000,35.616000Z" fill="rgb(190,149,57)" stroke="none" stroke-width="1" stroke-miterlimit="1"/><path id="eA9wj1iRWsX9" d="M466.495000,32.528000C466.495000,35.456000,465.751000,37.640000,464.263000,39.080000C462.823000,40.472000,461.215000,41.168000,459.439000,41.168000L442.375000,41.168000C442.375000,42.512000,443.167000,43.640000,444.751000,44.552000C446.335000,45.464000,447.919000,45.920000,449.503000,45.920000C452.287000,45.920000,454.471000,45.632000,456.055000,45.056000L456.847000,44.768000C457.999000,44.240000,458.959000,43.976000,459.727000,43.976000C461.263000,43.976000,462.583000,45.056000,463.687000,47.216000C464.311000,48.512000,464.623000,49.616000,464.623000,50.528000C464.623000,54.800000,459.511000,56.936000,449.287000,56.936000C445.735000,56.936000,442.567000,56.336000,439.783000,55.136000C437.047000,53.888000,434.911000,52.256000,433.375000,50.240000C430.351000,46.352000,428.839000,42.008000,428.839000,37.208000C428.839000,31.160000,430.783000,26.336000,434.671000,22.736000C438.607000,19.088000,443.503000,17.264000,449.359000,17.264000C456.031000,17.264000,460.927000,19.616000,464.047000,24.320000C465.679000,26.816000,466.495000,29.552000,466.495000,32.528000ZM451.303000,34.616000C453.127000,34.616000,454.039000,33.848000,454.039000,32.312000C454.039000,31.208000,453.607000,30.320000,452.743000,29.648000C451.927000,28.976000,450.727000,28.640000,449.143000,28.640000C447.607000,28.640000,446.071000,29.288000,444.535000,30.584000C442.999000,31.832000,442.231000,33.176000,442.231000,34.616000L451.303000,34.616000Z" fill="rgb(255,204,89)" stroke="none" stroke-width="1" stroke-miterlimit="1"/></g></g><g id="eA9wj1iRWsX10_to" transform="translate(410.766006,31.548000)"><g id="eA9wj1iRWsX10" transform="translate(-410.766006,-31.548000)"><path id="eA9wj1iRWsX11" d="M418.014000,32.800000L413.334000,32.512000L413.334000,42.448000C413.334000,43.744000,413.526000,44.680000,413.910000,45.256000C414.342000,45.832000,415.110000,46.120000,416.214000,46.120000C417.366000,46.120000,418.230000,46.168000,418.806000,46.264000C419.430000,46.312000,420.078000,46.528000,420.750000,46.912000C421.854000,47.536000,422.406000,49.144000,422.406000,51.736000C422.406000,54.760000,421.734000,56.608000,420.390000,57.280000C419.670000,57.616000,419.022000,57.832000,418.446000,57.928000C417.918000,57.976000,417.126000,58,416.070000,58C411.078000,58,407.286000,56.872000,404.694000,54.616000C402.102000,52.360000,400.806000,48.544000,400.806000,43.168000L400.806000,32.512000C399.894000,32.656000,398.910000,32.728000,397.854000,32.728000C396.798000,32.728000,395.910000,32.320000,395.190000,31.504000C394.518000,30.688000,394.182000,29.296000,394.182000,27.328000C394.182000,25.360000,394.302000,23.944000,394.542000,23.080000C394.782000,22.168000,395.118000,21.520000,395.550000,21.136000C396.318000,20.512000,397.278000,20.200000,398.430000,20.200000L400.806000,20.488000L400.806000,13.072000C400.806000,11.968000,400.830000,11.152000,400.878000,10.624000C400.974000,10.096000,401.214000,9.520000,401.598000,8.896000C402.222000,7.696000,404.070000,7.096000,407.142000,7.096000C410.406000,7.096000,412.350000,7.984000,412.974000,9.760000C413.214000,10.528000,413.334000,11.752000,413.334000,13.432000L413.334000,20.488000C415.446000,20.296000,417.030000,20.200000,418.086000,20.200000C419.190000,20.200000,420.006000,20.248000,420.534000,20.344000C421.110000,20.392000,421.758000,20.608000,422.478000,20.992000C423.726000,21.616000,424.350000,23.464000,424.350000,26.536000C424.350000,29.560000,423.702000,31.408000,422.406000,32.080000C421.686000,32.416000,421.038000,32.632000,420.462000,32.728000C419.934000,32.776000,419.118000,32.800000,418.014000,32.800000Z" fill="rgb(134,106,45)" stroke="none" stroke-width="1" stroke-miterlimit="1"/><path id="eA9wj1iRWsX12" d="M419.014000,31.800000L414.334000,31.512000L414.334000,41.448000C414.334000,42.744000,414.526000,43.680000,414.910000,44.256000C415.342000,44.832000,416.110000,45.120000,417.214000,45.120000C418.366000,45.120000,419.230000,45.168000,419.806000,45.264000C420.430000,45.312000,421.078000,45.528000,421.750000,45.912000C422.854000,46.536000,423.406000,48.144000,423.406000,50.736000C423.406000,53.760000,422.734000,55.608000,421.390000,56.280000C420.670000,56.616000,420.022000,56.832000,419.446000,56.928000C418.918000,56.976000,418.126000,57,417.070000,57C412.078000,57,408.286000,55.872000,405.694000,53.616000C403.102000,51.360000,401.806000,47.544000,401.806000,42.168000L401.806000,31.512000C400.894000,31.656000,399.910000,31.728000,398.854000,31.728000C397.798000,31.728000,396.910000,31.320000,396.190000,30.504000C395.518000,29.688000,395.182000,28.296000,395.182000,26.328000C395.182000,24.360000,395.302000,22.944000,395.542000,22.080000C395.782000,21.168000,396.118000,20.520000,396.550000,20.136000C397.318000,19.512000,398.278000,19.200000,399.430000,19.200000L401.806000,19.488000L401.806000,12.072000C401.806000,10.968000,401.830000,10.152000,401.878000,9.624000C401.974000,9.096000,402.214000,8.520000,402.598000,7.896000C403.222000,6.696000,405.070000,6.096000,408.142000,6.096000C411.406000,6.096000,413.350000,6.984000,413.974000,8.760000C414.214000,9.528000,414.334000,10.752000,414.334000,12.432000L414.334000,19.488000C416.446000,19.296000,418.030000,19.200000,419.086000,19.200000C420.190000,19.200000,421.006000,19.248000,421.534000,19.344000C422.110000,19.392000,422.758000,19.608000,423.478000,19.992000C424.726000,20.616000,425.350000,22.464000,425.350000,25.536000C425.350000,28.560000,424.702000,30.408000,423.406000,31.080000C422.686000,31.416000,422.038000,31.632000,421.462000,31.728000C420.934000,31.776000,420.118000,31.800000,419.014000,31.800000Z" fill="rgb(190,149,57)" stroke="none" stroke-width="1" stroke-miterlimit="1"/><path id="eA9wj1iRWsX13" d="M421.014000,30.800000L416.334000,30.512000L416.334000,40.448000C416.334000,41.744000,416.526000,42.680000,416.910000,43.256000C417.342000,43.832000,418.110000,44.120000,419.214000,44.120000C420.366000,44.120000,421.230000,44.168000,421.806000,44.264000C422.430000,44.312000,423.078000,44.528000,423.750000,44.912000C424.854000,45.536000,425.406000,47.144000,425.406000,49.736000C425.406000,52.760000,424.734000,54.608000,423.390000,55.280000C422.670000,55.616000,422.022000,55.832000,421.446000,55.928000C420.918000,55.976000,420.126000,56,419.070000,56C414.078000,56,410.286000,54.872000,407.694000,52.616000C405.102000,50.360000,403.806000,46.544000,403.806000,41.168000L403.806000,30.512000C402.894000,30.656000,401.910000,30.728000,400.854000,30.728000C399.798000,30.728000,398.910000,30.320000,398.190000,29.504000C397.518000,28.688000,397.182000,27.296000,397.182000,25.328000C397.182000,23.360000,397.302000,21.944000,397.542000,21.080000C397.782000,20.168000,398.118000,19.520000,398.550000,19.136000C399.318000,18.512000,400.278000,18.200000,401.430000,18.200000L403.806000,18.488000L403.806000,11.072000C403.806000,9.968000,403.830000,9.152000,403.878000,8.624000C403.974000,8.096000,404.214000,7.520000,404.598000,6.896000C405.222000,5.696000,407.070000,5.096000,410.142000,5.096000C413.406000,5.096000,415.350000,5.984000,415.974000,7.760000C416.214000,8.528000,416.334000,9.752000,416.334000,11.432000L416.334000,18.488000C418.446000,18.296000,420.030000,18.200000,421.086000,18.200000C422.190000,18.200000,423.006000,18.248000,423.534000,18.344000C424.110000,18.392000,424.758000,18.608000,425.478000,18.992000C426.726000,19.616000,427.350000,21.464000,427.350000,24.536000C427.350000,27.560000,426.702000,29.408000,425.406000,30.080000C424.686000,30.416000,424.038000,30.632000,423.462000,30.728000C422.934000,30.776000,422.118000,30.800000,421.014000,30.800000Z" fill="rgb(255,204,89)" stroke="none" stroke-width="1" stroke-miterlimit="1"/></g></g><g id="eA9wj1iRWsX14_to" transform="translate(378.103989,37.991999)"><g id="eA9wj1iRWsX14" transform="translate(-378.103989,-37.991999)"><path id="eA9wj1iRWsX15" d="M362.168000,54.616000C361.256000,54.040000,360.800000,53.128000,360.800000,51.880000C360.800000,50.632000,361.712000,48.736000,363.536000,46.192000C364.064000,45.376000,364.904000,44.968000,366.056000,44.968000C367.256000,44.968000,368.864000,45.568000,370.880000,46.768000C372.896000,47.920000,374.720000,48.496000,376.352000,48.496000C379.280000,48.496000,380.744000,47.920000,380.744000,46.768000C380.744000,45.856000,379.136000,45.184000,375.920000,44.752000C372.896000,44.320000,369.896000,43.192000,366.920000,41.368000C365.528000,40.504000,364.376000,39.160000,363.464000,37.336000C362.552000,35.464000,362.096000,33.256000,362.096000,30.712000C362.096000,23.128000,367.304000,19.336000,377.720000,19.336000C381.128000,19.336000,384.632000,20.152000,388.232000,21.784000C389.912000,22.552000,390.752000,23.512000,390.752000,24.664000C390.752000,25.816000,390.224000,27.232000,389.168000,28.912000C388.112000,30.592000,387.032000,31.432000,385.928000,31.432000C385.352000,31.432000,384.272000,31.072000,382.688000,30.352000C381.152000,29.632000,379.472000,29.272000,377.648000,29.272000C374.816000,29.272000,373.400000,29.800000,373.400000,30.856000C373.400000,32.296000,375.032000,33.232000,378.296000,33.664000C381.464000,34,384.536000,34.912000,387.512000,36.400000C388.904000,37.072000,390.056000,38.248000,390.968000,39.928000C391.928000,41.560000,392.408000,43.624000,392.408000,46.120000C392.408000,48.616000,391.928000,50.752000,390.968000,52.528000C390.056000,54.256000,388.760000,55.552000,387.080000,56.416000C384.008000,57.904000,380.144000,58.648000,375.488000,58.648000C370.880000,58.648000,366.440000,57.304000,362.168000,54.616000Z" fill="rgb(134,106,45)" stroke="none" stroke-width="1" stroke-miterlimit="1"/><path id="eA9wj1iRWsX16" d="M363.168000,53.616000C362.256000,53.040000,361.800000,52.128000,361.800000,50.880000C361.800000,49.632000,362.712000,47.736000,364.536000,45.192000C365.064000,44.376000,365.904000,43.968000,367.056000,43.968000C368.256000,43.968000,369.864000,44.568000,371.880000,45.768000C373.896000,46.920000,375.720000,47.496000,377.352000,47.496000C380.280000,47.496000,381.744000,46.920000,381.744000,45.768000C381.744000,44.856000,380.136000,44.184000,376.920000,43.752000C373.896000,43.320000,370.896000,42.192000,367.920000,40.368000C366.528000,39.504000,365.376000,38.160000,364.464000,36.336000C363.552000,34.464000,363.096000,32.256000,363.096000,29.712000C363.096000,22.128000,368.304000,18.336000,378.720000,18.336000C382.128000,18.336000,385.632000,19.152000,389.232000,20.784000C390.912000,21.552000,391.752000,22.512000,391.752000,23.664000C391.752000,24.816000,391.224000,26.232000,390.168000,27.912000C389.112000,29.592000,388.032000,30.432000,386.928000,30.432000C386.352000,30.432000,385.272000,30.072000,383.688000,29.352000C382.152000,28.632000,380.472000,28.272000,378.648000,28.272000C375.816000,28.272000,374.400000,28.800000,374.400000,29.856000C374.400000,31.296000,376.032000,32.232000,379.296000,32.664000C382.464000,33,385.536000,33.912000,388.512000,35.400000C389.904000,36.072000,391.056000,37.248000,391.968000,38.928000C392.928000,40.560000,393.408000,42.624000,393.408000,45.120000C393.408000,47.616000,392.928000,49.752000,391.968000,51.528000C391.056000,53.256000,389.760000,54.552000,388.080000,55.416000C385.008000,56.904000,381.144000,57.648000,376.488000,57.648000C371.880000,57.648000,367.440000,56.304000,363.168000,53.616000Z" fill="rgb(190,149,57)" stroke="none" stroke-width="1" stroke-miterlimit="1"/><path id="eA9wj1iRWsX17" d="M365.168000,52.616000C364.256000,52.040000,363.800000,51.128000,363.800000,49.880000C363.800000,48.632000,364.712000,46.736000,366.536000,44.192000C367.064000,43.376000,367.904000,42.968000,369.056000,42.968000C370.256000,42.968000,371.864000,43.568000,373.880000,44.768000C375.896000,45.920000,377.720000,46.496000,379.352000,46.496000C382.280000,46.496000,383.744000,45.920000,383.744000,44.768000C383.744000,43.856000,382.136000,43.184000,378.920000,42.752000C375.896000,42.320000,372.896000,41.192000,369.920000,39.368000C368.528000,38.504000,367.376000,37.160000,366.464000,35.336000C365.552000,33.464000,365.096000,31.256000,365.096000,28.712000C365.096000,21.128000,370.304000,17.336000,380.720000,17.336000C384.128000,17.336000,387.632000,18.152000,391.232000,19.784000C392.912000,20.552000,393.752000,21.512000,393.752000,22.664000C393.752000,23.816000,393.224000,25.232000,392.168000,26.912000C391.112000,28.592000,390.032000,29.432000,388.928000,29.432000C388.352000,29.432000,387.272000,29.072000,385.688000,28.352000C384.152000,27.632000,382.472000,27.272000,380.648000,27.272000C377.816000,27.272000,376.400000,27.800000,376.400000,28.856000C376.400000,30.296000,378.032000,31.232000,381.296000,31.664000C384.464000,32,387.536000,32.912000,390.512000,34.400000C391.904000,35.072000,393.056000,36.248000,393.968000,37.928000C394.928000,39.560000,395.408000,41.624000,395.408000,44.120000C395.408000,46.616000,394.928000,48.752000,393.968000,50.528000C393.056000,52.256000,391.760000,53.552000,390.080000,54.416000C387.008000,55.904000,383.144000,56.648000,378.488000,56.648000C373.880000,56.648000,369.440000,55.304000,365.168000,52.616000Z" fill="rgb(255,204,89)" stroke="none" stroke-width="1" stroke-miterlimit="1"/></g></g><g id="eA9wj1iRWsX18_to" transform="translate(349.617004,29.128798)"><g id="eA9wj1iRWsX18" transform="translate(-349.617004,-29.128798)"><path id="eA9wj1iRWsX19" d="M338.325000,8.536000C338.325000,7.432000,338.349000,6.616000,338.397000,6.088000C338.493000,5.512000,338.709000,4.864000,339.045000,4.144000C339.717000,2.848000,341.589000,2.200000,344.661000,2.200000C347.589000,2.200000,349.413000,2.848000,350.133000,4.144000C350.517000,4.864000,350.733000,5.512000,350.781000,6.088000C350.877000,6.664000,350.925000,7.504000,350.925000,8.608000L350.925000,41.944000C350.925000,43.672000,351.069000,44.776000,351.357000,45.256000C351.645000,45.688000,352.269000,45.904000,353.229000,45.904000C354.237000,45.904000,354.909000,45.952000,355.245000,46.048000C355.581000,46.096000,355.989000,46.288000,356.469000,46.624000C357.429000,47.248000,357.909000,48.952000,357.909000,51.736000C357.909000,54.760000,357.429000,56.608000,356.469000,57.280000C355.221000,58.144000,352.245000,58.288000,347.541000,57.712000C343.845000,57.232000,341.445000,56.008000,340.341000,54.040000C338.997000,51.688000,338.325000,47.944000,338.325000,42.808000L338.325000,8.536000Z" fill="rgb(134,106,45)" stroke="none" stroke-width="1" stroke-miterlimit="1"/><path id="eA9wj1iRWsX20" d="M339.325000,7.536000C339.325000,6.432000,339.349000,5.616000,339.397000,5.088000C339.493000,4.512000,339.709000,3.864000,340.045000,3.144000C340.717000,1.848000,342.589000,1.200000,345.661000,1.200000C348.589000,1.200000,350.413000,1.848000,351.133000,3.144000C351.517000,3.864000,351.733000,4.512000,351.781000,5.088000C351.877000,5.664000,351.925000,6.504000,351.925000,7.608000L351.925000,40.944000C351.925000,42.672000,352.069000,43.776000,352.357000,44.256000C352.645000,44.688000,353.269000,44.904000,354.229000,44.904000C355.237000,44.904000,355.909000,44.952000,356.245000,45.048000C356.581000,45.096000,356.989000,45.288000,357.469000,45.624000C358.429000,46.248000,358.909000,47.952000,358.909000,50.736000C358.909000,53.760000,358.429000,55.608000,357.469000,56.280000C356.221000,57.144000,353.245000,57.288000,348.541000,56.712000C344.845000,56.232000,342.445000,55.008000,341.341000,53.040000C339.997000,50.688000,339.325000,46.944000,339.325000,41.808000L339.325000,7.536000Z" fill="rgb(190,149,57)" stroke="none" stroke-width="1" stroke-miterlimit="1"/><path id="eA9wj1iRWsX21" d="M341.325000,6.536000C341.325000,5.432000,341.349000,4.616000,341.397000,4.088000C341.493000,3.512000,341.709000,2.864000,342.045000,2.144000C342.717000,0.847997,344.589000,0.199997,347.661000,0.199997C350.589000,0.199997,352.413000,0.847997,353.133000,2.144000C353.517000,2.864000,353.733000,3.512000,353.781000,4.088000C353.877000,4.664000,353.925000,5.504000,353.925000,6.608000L353.925000,39.944000C353.925000,41.672000,354.069000,42.776000,354.357000,43.256000C354.645000,43.688000,355.269000,43.904000,356.229000,43.904000C357.237000,43.904000,357.909000,43.952000,358.245000,44.048000C358.581000,44.096000,358.989000,44.288000,359.469000,44.624000C360.429000,45.248000,360.909000,46.952000,360.909000,49.736000C360.909000,52.760000,360.429000,54.608000,359.469000,55.280000C358.221000,56.144000,355.245000,56.288000,350.541000,55.712000C346.845000,55.232000,344.445000,54.008000,343.341000,52.040000C341.997000,49.688000,341.325000,45.944000,341.325000,40.808000L341.325000,6.536000Z" fill="rgb(255,204,89)" stroke="none" stroke-width="1" stroke-miterlimit="1"/></g></g><g id="eA9wj1iRWsX22_to" transform="translate(321.391006,37.848000)"><g id="eA9wj1iRWsX22" transform="translate(-321.391006,-37.848000)"><path id="eA9wj1iRWsX23" d="M331.195000,20.488000C332.107000,20.776000,332.851000,21.280000,333.427000,22C334.051000,22.672000,334.363000,23.776000,334.363000,25.312000C334.363000,26.848000,333.907000,28.528000,332.995000,30.352000C332.083000,32.176000,330.763000,33.088000,329.035000,33.088000C328.171000,33.088000,327.331000,32.896000,326.515000,32.512000C325.747000,32.128000,324.715000,31.936000,323.419000,31.936000C322.123000,31.936000,320.899000,32.392000,319.747000,33.304000C318.643000,34.216000,318.091000,35.320000,318.091000,36.616000L318.091000,51.736000C318.091000,52.840000,318.043000,53.680000,317.947000,54.256000C317.899000,54.784000,317.683000,55.408000,317.299000,56.128000C316.579000,57.376000,314.707000,58,311.683000,58C309.379000,58,307.723000,57.592000,306.715000,56.776000C305.947000,56.104000,305.515000,55.072000,305.419000,53.680000C305.419000,53.200000,305.419000,52.504000,305.419000,51.592000L305.419000,26.320000C305.419000,25.216000,305.443000,24.400000,305.491000,23.872000C305.587000,23.296000,305.803000,22.672000,306.139000,22C306.811000,20.704000,308.683000,20.056000,311.755000,20.056000C314.635000,20.056000,316.435000,20.608000,317.155000,21.712000C317.683000,22.480000,317.947000,23.272000,317.947000,24.088000C318.187000,23.752000,318.523000,23.344000,318.955000,22.864000C319.435000,22.384000,320.419000,21.736000,321.907000,20.920000C323.395000,20.104000,324.691000,19.696000,325.795000,19.696000C326.947000,19.696000,327.907000,19.768000,328.675000,19.912000C329.443000,20.008000,330.283000,20.200000,331.195000,20.488000Z" fill="rgb(134,106,45)" stroke="none" stroke-width="1" stroke-miterlimit="1"/><path id="eA9wj1iRWsX24" d="M332.195000,19.488000C333.107000,19.776000,333.851000,20.280000,334.427000,21C335.051000,21.672000,335.363000,22.776000,335.363000,24.312000C335.363000,25.848000,334.907000,27.528000,333.995000,29.352000C333.083000,31.176000,331.763000,32.088000,330.035000,32.088000C329.171000,32.088000,328.331000,31.896000,327.515000,31.512000C326.747000,31.128000,325.715000,30.936000,324.419000,30.936000C323.123000,30.936000,321.899000,31.392000,320.747000,32.304000C319.643000,33.216000,319.091000,34.320000,319.091000,35.616000L319.091000,50.736000C319.091000,51.840000,319.043000,52.680000,318.947000,53.256000C318.899000,53.784000,318.683000,54.408000,318.299000,55.128000C317.579000,56.376000,315.707000,57,312.683000,57C310.379000,57,308.723000,56.592000,307.715000,55.776000C306.947000,55.104000,306.515000,54.072000,306.419000,52.680000C306.419000,52.200000,306.419000,51.504000,306.419000,50.592000L306.419000,25.320000C306.419000,24.216000,306.443000,23.400000,306.491000,22.872000C306.587000,22.296000,306.803000,21.672000,307.139000,21C307.811000,19.704000,309.683000,19.056000,312.755000,19.056000C315.635000,19.056000,317.435000,19.608000,318.155000,20.712000C318.683000,21.480000,318.947000,22.272000,318.947000,23.088000C319.187000,22.752000,319.523000,22.344000,319.955000,21.864000C320.435000,21.384000,321.419000,20.736000,322.907000,19.920000C324.395000,19.104000,325.691000,18.696000,326.795000,18.696000C327.947000,18.696000,328.907000,18.768000,329.675000,18.912000C330.443000,19.008000,331.283000,19.200000,332.195000,19.488000Z" fill="rgb(190,149,57)" stroke="none" stroke-width="1" stroke-miterlimit="1"/><path id="eA9wj1iRWsX25" d="M334.195000,18.488000C335.107000,18.776000,335.851000,19.280000,336.427000,20C337.051000,20.672000,337.363000,21.776000,337.363000,23.312000C337.363000,24.848000,336.907000,26.528000,335.995000,28.352000C335.083000,30.176000,333.763000,31.088000,332.035000,31.088000C331.171000,31.088000,330.331000,30.896000,329.515000,30.512000C328.747000,30.128000,327.715000,29.936000,326.419000,29.936000C325.123000,29.936000,323.899000,30.392000,322.747000,31.304000C321.643000,32.216000,321.091000,33.320000,321.091000,34.616000L321.091000,49.736000C321.091000,50.840000,321.043000,51.680000,320.947000,52.256000C320.899000,52.784000,320.683000,53.408000,320.299000,54.128000C319.579000,55.376000,317.707000,56,314.683000,56C312.379000,56,310.723000,55.592000,309.715000,54.776000C308.947000,54.104000,308.515000,53.072000,308.419000,51.680000C308.419000,51.200000,308.419000,50.504000,308.419000,49.592000L308.419000,24.320000C308.419000,23.216000,308.443000,22.400000,308.491000,21.872000C308.587000,21.296000,308.803000,20.672000,309.139000,20C309.811000,18.704000,311.683000,18.056000,314.755000,18.056000C317.635000,18.056000,319.435000,18.608000,320.155000,19.712000C320.683000,20.480000,320.947000,21.272000,320.947000,22.088000C321.187000,21.752000,321.523000,21.344000,321.955000,20.864000C322.435000,20.384000,323.419000,19.736000,324.907000,18.920000C326.395000,18.104000,327.691000,17.696000,328.795000,17.696000C329.947000,17.696000,330.907000,17.768000,331.675000,17.912000C332.443000,18.008000,333.283000,18.200000,334.195000,18.488000Z" fill="rgb(255,204,89)" stroke="none" stroke-width="1" stroke-miterlimit="1"/></g></g><g id="eA9wj1iRWsX26_to" transform="translate(282.063995,37.955999)"><g id="eA9wj1iRWsX26" transform="translate(-282.063995,-37.955999)"><path id="eA9wj1iRWsX27" d="M287.152000,24.088000C287.440000,21.400000,289.336000,20.056000,292.840000,20.056000C294.712000,20.056000,296.104000,20.200000,297.016000,20.488000C297.928000,20.776000,298.552000,21.280000,298.888000,22C299.272000,22.720000,299.488000,23.368000,299.536000,23.944000C299.632000,24.472000,299.680000,25.288000,299.680000,26.392000L299.680000,51.592000C299.680000,52.696000,299.632000,53.536000,299.536000,54.112000C299.488000,54.640000,299.296000,55.264000,298.960000,55.984000C298.288000,57.232000,296.632000,57.856000,293.992000,57.856000C291.400000,57.856000,289.648000,57.544000,288.736000,56.920000C287.872000,56.248000,287.368000,55.288000,287.224000,54.040000C285.448000,56.584000,282.472000,57.856000,278.296000,57.856000C274.168000,57.856000,270.328000,55.960000,266.776000,52.168000C263.224000,48.376000,261.448000,43.984000,261.448000,38.992000C261.448000,33.952000,263.224000,29.560000,266.776000,25.816000C270.376000,22.024000,274.312000,20.128000,278.584000,20.128000C280.216000,20.128000,281.704000,20.416000,283.048000,20.992000C284.392000,21.568000,285.328000,22.120000,285.856000,22.648000C286.384000,23.128000,286.816000,23.608000,287.152000,24.088000ZM274.048000,39.064000C274.048000,40.648000,274.672000,42.088000,275.920000,43.384000C277.168000,44.632000,278.680000,45.256000,280.456000,45.256000C282.232000,45.256000,283.696000,44.608000,284.848000,43.312000C286.048000,42.016000,286.648000,40.600000,286.648000,39.064000C286.648000,37.480000,286.072000,36.016000,284.920000,34.672000C283.816000,33.328000,282.304000,32.656000,280.384000,32.656000C278.512000,32.656000,276.976000,33.328000,275.776000,34.672000C274.624000,36.016000,274.048000,37.480000,274.048000,39.064000Z" fill="rgb(134,106,45)" stroke="none" stroke-width="1" stroke-miterlimit="1"/><path id="eA9wj1iRWsX28" d="M288.152000,23.088000C288.440000,20.400000,290.336000,19.056000,293.840000,19.056000C295.712000,19.056000,297.104000,19.200000,298.016000,19.488000C298.928000,19.776000,299.552000,20.280000,299.888000,21C300.272000,21.720000,300.488000,22.368000,300.536000,22.944000C300.632000,23.472000,300.680000,24.288000,300.680000,25.392000L300.680000,50.592000C300.680000,51.696000,300.632000,52.536000,300.536000,53.112000C300.488000,53.640000,300.296000,54.264000,299.960000,54.984000C299.288000,56.232000,297.632000,56.856000,294.992000,56.856000C292.400000,56.856000,290.648000,56.544000,289.736000,55.920000C288.872000,55.248000,288.368000,54.288000,288.224000,53.040000C286.448000,55.584000,283.472000,56.856000,279.296000,56.856000C275.168000,56.856000,271.328000,54.960000,267.776000,51.168000C264.224000,47.376000,262.448000,42.984000,262.448000,37.992000C262.448000,32.952000,264.224000,28.560000,267.776000,24.816000C271.376000,21.024000,275.312000,19.128000,279.584000,19.128000C281.216000,19.128000,282.704000,19.416000,284.048000,19.992000C285.392000,20.568000,286.328000,21.120000,286.856000,21.648000C287.384000,22.128000,287.816000,22.608000,288.152000,23.088000ZM275.048000,38.064000C275.048000,39.648000,275.672000,41.088000,276.920000,42.384000C278.168000,43.632000,279.680000,44.256000,281.456000,44.256000C283.232000,44.256000,284.696000,43.608000,285.848000,42.312000C287.048000,41.016000,287.648000,39.600000,287.648000,38.064000C287.648000,36.480000,287.072000,35.016000,285.920000,33.672000C284.816000,32.328000,283.304000,31.656000,281.384000,31.656000C279.512000,31.656000,277.976000,32.328000,276.776000,33.672000C275.624000,35.016000,275.048000,36.480000,275.048000,38.064000Z" fill="rgb(190,149,57)" stroke="none" stroke-width="1" stroke-miterlimit="1"/><path id="eA9wj1iRWsX29" d="M290.152000,22.088000C290.440000,19.400000,292.336000,18.056000,295.840000,18.056000C297.712000,18.056000,299.104000,18.200000,300.016000,18.488000C300.928000,18.776000,301.552000,19.280000,301.888000,20C302.272000,20.720000,302.488000,21.368000,302.536000,21.944000C302.632000,22.472000,302.680000,23.288000,302.680000,24.392000L302.680000,49.592000C302.680000,50.696000,302.632000,51.536000,302.536000,52.112000C302.488000,52.640000,302.296000,53.264000,301.960000,53.984000C301.288000,55.232000,299.632000,55.856000,296.992000,55.856000C294.400000,55.856000,292.648000,55.544000,291.736000,54.920000C290.872000,54.248000,290.368000,53.288000,290.224000,52.040000C288.448000,54.584000,285.472000,55.856000,281.296000,55.856000C277.168000,55.856000,273.328000,53.960000,269.776000,50.168000C266.224000,46.376000,264.448000,41.984000,264.448000,36.992000C264.448000,31.952000,266.224000,27.560000,269.776000,23.816000C273.376000,20.024000,277.312000,18.128000,281.584000,18.128000C283.216000,18.128000,284.704000,18.416000,286.048000,18.992000C287.392000,19.568000,288.328000,20.120000,288.856000,20.648000C289.384000,21.128000,289.816000,21.608000,290.152000,22.088000ZM277.048000,37.064000C277.048000,38.648000,277.672000,40.088000,278.920000,41.384000C280.168000,42.632000,281.680000,43.256000,283.456000,43.256000C285.232000,43.256000,286.696000,42.608000,287.848000,41.312000C289.048000,40.016000,289.648000,38.600000,289.648000,37.064000C289.648000,35.480000,289.072000,34.016000,287.920000,32.672000C286.816000,31.328000,285.304000,30.656000,283.384000,30.656000C281.512000,30.656000,279.976000,31.328000,278.776000,32.672000C277.624000,34.016000,277.048000,35.480000,277.048000,37.064000Z" fill="rgb(255,204,89)" stroke="none" stroke-width="1" stroke-miterlimit="1"/></g></g><g id="eA9wj1iRWsX30_to" transform="translate(241.231003,30.539996)"><g id="eA9wj1iRWsX30" transform="translate(-241.231003,-30.539996)"><path id="eA9wj1iRWsX31" d="M242.035000,31.504000C249.379000,38.560000,254.587000,43.864000,257.659000,47.416000C259.243000,49.192000,260.035000,50.704000,260.035000,51.952000C260.035000,53.152000,259.075000,54.592000,257.155000,56.272000C255.235000,57.904000,253.651000,58.720000,252.403000,58.720000C251.203000,58.720000,249.739000,57.712000,248.011000,55.696000L232.171000,37.624000L232.171000,51.664000C232.171000,52.816000,232.123000,53.656000,232.027000,54.184000C231.979000,54.712000,231.763000,55.336000,231.379000,56.056000C230.707000,57.352000,228.835000,58,225.763000,58C222.403000,58,220.435000,57.088000,219.859000,55.264000C219.571000,54.496000,219.427000,53.272000,219.427000,51.592000L219.427000,11.560000C219.427000,10.456000,219.451000,9.640000,219.499000,9.112000C219.595000,8.536000,219.835000,7.888000,220.219000,7.168000C220.891000,5.872000,222.763000,5.224000,225.835000,5.224000C229.195000,5.224000,231.187000,6.112000,231.811000,7.888000C232.051000,8.704000,232.171000,9.952000,232.171000,11.632000L232.171000,25.384000C238.699000,18.040000,243.979000,12.016000,248.011000,7.312000C249.691000,5.344000,251.155000,4.359990,252.403000,4.359990C253.651000,4.359990,255.235000,5.200000,257.155000,6.880000C259.075000,8.512000,260.035000,9.952000,260.035000,11.200000C260.035000,12.400000,259.315000,13.840000,257.875000,15.520000C255.091000,18.736000,250.771000,23.152000,244.915000,28.768000L242.035000,31.504000Z" fill="rgb(134,106,45)" stroke="none" stroke-width="1" stroke-miterlimit="1"/><path id="eA9wj1iRWsX32" d="M243.035000,30.504000C250.379000,37.560000,255.587000,42.864000,258.659000,46.416000C260.243000,48.192000,261.035000,49.704000,261.035000,50.952000C261.035000,52.152000,260.075000,53.592000,258.155000,55.272000C256.235000,56.904000,254.651000,57.720000,253.403000,57.720000C252.203000,57.720000,250.739000,56.712000,249.011000,54.696000L233.171000,36.624000L233.171000,50.664000C233.171000,51.816000,233.123000,52.656000,233.027000,53.184000C232.979000,53.712000,232.763000,54.336000,232.379000,55.056000C231.707000,56.352000,229.835000,57,226.763000,57C223.403000,57,221.435000,56.088000,220.859000,54.264000C220.571000,53.496000,220.427000,52.272000,220.427000,50.592000L220.427000,10.560000C220.427000,9.456000,220.451000,8.640000,220.499000,8.112000C220.595000,7.536000,220.835000,6.888000,221.219000,6.168000C221.891000,4.872000,223.763000,4.224000,226.835000,4.224000C230.195000,4.224000,232.187000,5.112000,232.811000,6.888000C233.051000,7.704000,233.171000,8.952000,233.171000,10.632000L233.171000,24.384000C239.699000,17.040000,244.979000,11.016000,249.011000,6.312000C250.691000,4.344000,252.155000,3.359990,253.403000,3.359990C254.651000,3.359990,256.235000,4.200000,258.155000,5.880000C260.075000,7.512000,261.035000,8.952000,261.035000,10.200000C261.035000,11.400000,260.315000,12.840000,258.875000,14.520000C256.091000,17.736000,251.771000,22.152000,245.915000,27.768000L243.035000,30.504000Z" fill="rgb(190,149,57)" stroke="none" stroke-width="1" stroke-miterlimit="1"/><path id="eA9wj1iRWsX33" d="M245.035000,29.504000C252.379000,36.560000,257.587000,41.864000,260.659000,45.416000C262.243000,47.192000,263.035000,48.704000,263.035000,49.952000C263.035000,51.152000,262.075000,52.592000,260.155000,54.272000C258.235000,55.904000,256.651000,56.720000,255.403000,56.720000C254.203000,56.720000,252.739000,55.712000,251.011000,53.696000L235.171000,35.624000L235.171000,49.664000C235.171000,50.816000,235.123000,51.656000,235.027000,52.184000C234.979000,52.712000,234.763000,53.336000,234.379000,54.056000C233.707000,55.352000,231.835000,56,228.763000,56C225.403000,56,223.435000,55.088000,222.859000,53.264000C222.571000,52.496000,222.427000,51.272000,222.427000,49.592000L222.427000,9.560000C222.427000,8.456000,222.451000,7.640000,222.499000,7.112000C222.595000,6.536000,222.835000,5.888000,223.219000,5.168000C223.891000,3.872000,225.763000,3.224000,228.835000,3.224000C232.195000,3.224000,234.187000,4.112000,234.811000,5.888000C235.051000,6.704000,235.171000,7.952000,235.171000,9.632000L235.171000,23.384000C241.699000,16.040000,246.979000,10.016000,251.011000,5.312000C252.691000,3.344000,254.155000,2.359990,255.403000,2.359990C256.651000,2.359990,258.235000,3.200000,260.155000,4.880000C262.075000,6.512000,263.035000,7.952000,263.035000,9.200000C263.035000,10.400000,262.315000,11.840000,260.875000,13.520000C258.091000,16.736000,253.771000,21.152000,247.915000,26.768000L245.035000,29.504000Z" fill="rgb(255,204,89)" stroke="none" stroke-width="1" stroke-miterlimit="1"/></g></g><g id="eA9wj1iRWsX34_to" transform="translate(169.229996,37.991999)"><g id="eA9wj1iRWsX34" transform="translate(-169.229996,-37.991999)"><path id="eA9wj1iRWsX35" d="M152.358000,25.096000C154.614000,21.688000,157.326000,19.984000,160.494000,19.984000C165.390000,19.984000,169.038000,22.072000,171.438000,26.248000C171.966000,25.528000,172.590000,24.784000,173.310000,24.016000C174.078000,23.200000,175.278000,22.336000,176.910000,21.424000C178.542000,20.464000,180.222000,19.984000,181.950000,19.984000C185.790000,19.984000,189.006000,21.472000,191.598000,24.448000C194.190000,27.376000,195.486000,32.248000,195.486000,39.064000L195.486000,51.664000C195.486000,52.768000,195.438000,53.608000,195.342000,54.184000C195.294000,54.712000,195.078000,55.336000,194.694000,56.056000C194.070000,57.352000,192.222000,58,189.150000,58C186.126000,58,184.278000,57.328000,183.606000,55.984000C183.270000,55.264000,183.054000,54.640000,182.958000,54.112000C182.910000,53.536000,182.886000,52.696000,182.886000,51.592000L182.886000,38.992000C182.886000,34.816000,181.398000,32.728000,178.422000,32.728000C176.742000,32.728000,175.590000,33.280000,174.966000,34.384000C174.390000,35.488000,174.102000,37.048000,174.102000,39.064000L174.102000,51.664000C174.102000,52.816000,174.054000,53.656000,173.958000,54.184000C173.910000,54.712000,173.694000,55.336000,173.310000,56.056000C172.638000,57.352000,170.766000,58,167.694000,58C164.670000,58,162.822000,57.328000,162.150000,55.984000C161.814000,55.264000,161.598000,54.640000,161.502000,54.112000C161.454000,53.536000,161.430000,52.696000,161.430000,51.592000L161.430000,38.992000C161.430000,34.816000,159.942000,32.728000,156.966000,32.728000C154.086000,32.728000,152.646000,34.816000,152.646000,38.992000L152.646000,51.736000C152.646000,52.840000,152.598000,53.680000,152.502000,54.256000C152.454000,54.784000,152.238000,55.408000,151.854000,56.128000C151.134000,57.376000,149.262000,58,146.238000,58C143.214000,58,141.366000,57.352000,140.694000,56.056000C140.358000,55.336000,140.142000,54.712000,140.046000,54.184000C139.998000,53.656000,139.974000,52.816000,139.974000,51.664000L139.974000,26.320000C139.974000,25.216000,139.998000,24.400000,140.046000,23.872000C140.142000,23.296000,140.382000,22.672000,140.766000,22C141.486000,20.704000,143.190000,20.056000,145.878000,20.056000C148.566000,20.056000,150.318000,20.488000,151.134000,21.352000C151.950000,22.216000,152.358000,23.464000,152.358000,25.096000Z" fill="rgb(134,106,45)" stroke="none" stroke-width="1" stroke-miterlimit="1"/><path id="eA9wj1iRWsX36" d="M153.358000,24.096000C155.614000,20.688000,158.326000,18.984000,161.494000,18.984000C166.390000,18.984000,170.038000,21.072000,172.438000,25.248000C172.966000,24.528000,173.590000,23.784000,174.310000,23.016000C175.078000,22.200000,176.278000,21.336000,177.910000,20.424000C179.542000,19.464000,181.222000,18.984000,182.950000,18.984000C186.790000,18.984000,190.006000,20.472000,192.598000,23.448000C195.190000,26.376000,196.486000,31.248000,196.486000,38.064000L196.486000,50.664000C196.486000,51.768000,196.438000,52.608000,196.342000,53.184000C196.294000,53.712000,196.078000,54.336000,195.694000,55.056000C195.070000,56.352000,193.222000,57,190.150000,57C187.126000,57,185.278000,56.328000,184.606000,54.984000C184.270000,54.264000,184.054000,53.640000,183.958000,53.112000C183.910000,52.536000,183.886000,51.696000,183.886000,50.592000L183.886000,37.992000C183.886000,33.816000,182.398000,31.728000,179.422000,31.728000C177.742000,31.728000,176.590000,32.280000,175.966000,33.384000C175.390000,34.488000,175.102000,36.048000,175.102000,38.064000L175.102000,50.664000C175.102000,51.816000,175.054000,52.656000,174.958000,53.184000C174.910000,53.712000,174.694000,54.336000,174.310000,55.056000C173.638000,56.352000,171.766000,57,168.694000,57C165.670000,57,163.822000,56.328000,163.150000,54.984000C162.814000,54.264000,162.598000,53.640000,162.502000,53.112000C162.454000,52.536000,162.430000,51.696000,162.430000,50.592000L162.430000,37.992000C162.430000,33.816000,160.942000,31.728000,157.966000,31.728000C155.086000,31.728000,153.646000,33.816000,153.646000,37.992000L153.646000,50.736000C153.646000,51.840000,153.598000,52.680000,153.502000,53.256000C153.454000,53.784000,153.238000,54.408000,152.854000,55.128000C152.134000,56.376000,150.262000,57,147.238000,57C144.214000,57,142.366000,56.352000,141.694000,55.056000C141.358000,54.336000,141.142000,53.712000,141.046000,53.184000C140.998000,52.656000,140.974000,51.816000,140.974000,50.664000L140.974000,25.320000C140.974000,24.216000,140.998000,23.400000,141.046000,22.872000C141.142000,22.296000,141.382000,21.672000,141.766000,21C142.486000,19.704000,144.190000,19.056000,146.878000,19.056000C149.566000,19.056000,151.318000,19.488000,152.134000,20.352000C152.950000,21.216000,153.358000,22.464000,153.358000,24.096000Z" fill="rgb(190,149,57)" stroke="none" stroke-width="1" stroke-miterlimit="1"/><path id="eA9wj1iRWsX37" d="M155.358000,23.096000C157.614000,19.688000,160.326000,17.984000,163.494000,17.984000C168.390000,17.984000,172.038000,20.072000,174.438000,24.248000C174.966000,23.528000,175.590000,22.784000,176.310000,22.016000C177.078000,21.200000,178.278000,20.336000,179.910000,19.424000C181.542000,18.464000,183.222000,17.984000,184.950000,17.984000C188.790000,17.984000,192.006000,19.472000,194.598000,22.448000C197.190000,25.376000,198.486000,30.248000,198.486000,37.064000L198.486000,49.664000C198.486000,50.768000,198.438000,51.608000,198.342000,52.184000C198.294000,52.712000,198.078000,53.336000,197.694000,54.056000C197.070000,55.352000,195.222000,56,192.150000,56C189.126000,56,187.278000,55.328000,186.606000,53.984000C186.270000,53.264000,186.054000,52.640000,185.958000,52.112000C185.910000,51.536000,185.886000,50.696000,185.886000,49.592000L185.886000,36.992000C185.886000,32.816000,184.398000,30.728000,181.422000,30.728000C179.742000,30.728000,178.590000,31.280000,177.966000,32.384000C177.390000,33.488000,177.102000,35.048000,177.102000,37.064000L177.102000,49.664000C177.102000,50.816000,177.054000,51.656000,176.958000,52.184000C176.910000,52.712000,176.694000,53.336000,176.310000,54.056000C175.638000,55.352000,173.766000,56,170.694000,56C167.670000,56,165.822000,55.328000,165.150000,53.984000C164.814000,53.264000,164.598000,52.640000,164.502000,52.112000C164.454000,51.536000,164.430000,50.696000,164.430000,49.592000L164.430000,36.992000C164.430000,32.816000,162.942000,30.728000,159.966000,30.728000C157.086000,30.728000,155.646000,32.816000,155.646000,36.992000L155.646000,49.736000C155.646000,50.840000,155.598000,51.680000,155.502000,52.256000C155.454000,52.784000,155.238000,53.408000,154.854000,54.128000C154.134000,55.376000,152.262000,56,149.238000,56C146.214000,56,144.366000,55.352000,143.694000,54.056000C143.358000,53.336000,143.142000,52.712000,143.046000,52.184000C142.998000,51.656000,142.974000,50.816000,142.974000,49.664000L142.974000,24.320000C142.974000,23.216000,142.998000,22.400000,143.046000,21.872000C143.142000,21.296000,143.382000,20.672000,143.766000,20C144.486000,18.704000,146.190000,18.056000,148.878000,18.056000C151.566000,18.056000,153.318000,18.488000,154.134000,19.352000C154.950000,20.216000,155.358000,21.464000,155.358000,23.096000Z" fill="rgb(255,204,89)" stroke="none" stroke-width="1" stroke-miterlimit="1"/></g></g><g id="eA9wj1iRWsX38_to" transform="translate(116.619049,37.955999)"><g id="eA9wj1iRWsX38" transform="translate(-116.619049,-37.955999)"><path id="eA9wj1iRWsX39" d="M121.707000,24.088000C121.995000,21.400000,123.891000,20.056000,127.395000,20.056000C129.267000,20.056000,130.659000,20.200000,131.571000,20.488000C132.483000,20.776000,133.107000,21.280000,133.443000,22C133.827000,22.720000,134.043000,23.368000,134.091000,23.944000C134.187000,24.472000,134.235000,25.288000,134.235000,26.392000L134.235000,51.592000C134.235000,52.696000,134.187000,53.536000,134.091000,54.112000C134.043000,54.640000,133.851000,55.264000,133.515000,55.984000C132.843000,57.232000,131.187000,57.856000,128.547000,57.856000C125.955000,57.856000,124.203000,57.544000,123.291000,56.920000C122.427000,56.248000,121.923000,55.288000,121.779000,54.040000C120.003000,56.584000,117.027000,57.856000,112.851000,57.856000C108.723000,57.856000,104.883000,55.960000,101.331000,52.168000C97.779100,48.376000,96.003100,43.984000,96.003100,38.992000C96.003100,33.952000,97.779100,29.560000,101.331000,25.816000C104.931000,22.024000,108.867000,20.128000,113.139000,20.128000C114.771000,20.128000,116.259000,20.416000,117.603000,20.992000C118.947000,21.568000,119.883000,22.120000,120.411000,22.648000C120.939000,23.128000,121.371000,23.608000,121.707000,24.088000ZM108.603000,39.064000C108.603000,40.648000,109.227000,42.088000,110.475000,43.384000C111.723000,44.632000,113.235000,45.256000,115.011000,45.256000C116.787000,45.256000,118.251000,44.608000,119.403000,43.312000C120.603000,42.016000,121.203000,40.600000,121.203000,39.064000C121.203000,37.480000,120.627000,36.016000,119.475000,34.672000C118.371000,33.328000,116.859000,32.656000,114.939000,32.656000C113.067000,32.656000,111.531000,33.328000,110.331000,34.672000C109.179000,36.016000,108.603000,37.480000,108.603000,39.064000Z" fill="rgb(134,106,45)" stroke="none" stroke-width="1" stroke-miterlimit="1"/><path id="eA9wj1iRWsX40" d="M122.707000,23.088000C122.995000,20.400000,124.891000,19.056000,128.395000,19.056000C130.267000,19.056000,131.659000,19.200000,132.571000,19.488000C133.483000,19.776000,134.107000,20.280000,134.443000,21C134.827000,21.720000,135.043000,22.368000,135.091000,22.944000C135.187000,23.472000,135.235000,24.288000,135.235000,25.392000L135.235000,50.592000C135.235000,51.696000,135.187000,52.536000,135.091000,53.112000C135.043000,53.640000,134.851000,54.264000,134.515000,54.984000C133.843000,56.232000,132.187000,56.856000,129.547000,56.856000C126.955000,56.856000,125.203000,56.544000,124.291000,55.920000C123.427000,55.248000,122.923000,54.288000,122.779000,53.040000C121.003000,55.584000,118.027000,56.856000,113.851000,56.856000C109.723000,56.856000,105.883000,54.960000,102.331000,51.168000C98.779100,47.376000,97.003100,42.984000,97.003100,37.992000C97.003100,32.952000,98.779100,28.560000,102.331000,24.816000C105.931000,21.024000,109.867000,19.128000,114.139000,19.128000C115.771000,19.128000,117.259000,19.416000,118.603000,19.992000C119.947000,20.568000,120.883000,21.120000,121.411000,21.648000C121.939000,22.128000,122.371000,22.608000,122.707000,23.088000ZM109.603000,38.064000C109.603000,39.648000,110.227000,41.088000,111.475000,42.384000C112.723000,43.632000,114.235000,44.256000,116.011000,44.256000C117.787000,44.256000,119.251000,43.608000,120.403000,42.312000C121.603000,41.016000,122.203000,39.600000,122.203000,38.064000C122.203000,36.480000,121.627000,35.016000,120.475000,33.672000C119.371000,32.328000,117.859000,31.656000,115.939000,31.656000C114.067000,31.656000,112.531000,32.328000,111.331000,33.672000C110.179000,35.016000,109.603000,36.480000,109.603000,38.064000Z" fill="rgb(190,149,57)" stroke="none" stroke-width="1" stroke-miterlimit="1"/><path id="eA9wj1iRWsX41" d="M124.707000,22.088000C124.995000,19.400000,126.891000,18.056000,130.395000,18.056000C132.267000,18.056000,133.659000,18.200000,134.571000,18.488000C135.483000,18.776000,136.107000,19.280000,136.443000,20C136.827000,20.720000,137.043000,21.368000,137.091000,21.944000C137.187000,22.472000,137.235000,23.288000,137.235000,24.392000L137.235000,49.592000C137.235000,50.696000,137.187000,51.536000,137.091000,52.112000C137.043000,52.640000,136.851000,53.264000,136.515000,53.984000C135.843000,55.232000,134.187000,55.856000,131.547000,55.856000C128.955000,55.856000,127.203000,55.544000,126.291000,54.920000C125.427000,54.248000,124.923000,53.288000,124.779000,52.040000C123.003000,54.584000,120.027000,55.856000,115.851000,55.856000C111.723000,55.856000,107.883000,53.960000,104.331000,50.168000C100.779000,46.376000,99.003100,41.984000,99.003100,36.992000C99.003100,31.952000,100.779000,27.560000,104.331000,23.816000C107.931000,20.024000,111.867000,18.128000,116.139000,18.128000C117.771000,18.128000,119.259000,18.416000,120.603000,18.992000C121.947000,19.568000,122.883000,20.120000,123.411000,20.648000C123.939000,21.128000,124.371000,21.608000,124.707000,22.088000ZM111.603000,37.064000C111.603000,38.648000,112.227000,40.088000,113.475000,41.384000C114.723000,42.632000,116.235000,43.256000,118.011000,43.256000C119.787000,43.256000,121.251000,42.608000,122.403000,41.312000C123.603000,40.016000,124.203000,38.600000,124.203000,37.064000C124.203000,35.480000,123.627000,34.016000,122.475000,32.672000C121.371000,31.328000,119.859000,30.656000,117.939000,30.656000C116.067000,30.656000,114.531000,31.328000,113.331000,32.672000C112.179000,34.016000,111.603000,35.480000,111.603000,37.064000Z" fill="rgb(255,204,89)" stroke="none" stroke-width="1" stroke-miterlimit="1"/></g></g><g id="eA9wj1iRWsX42_to" transform="translate(73.839901,29.135999)"><g id="eA9wj1iRWsX42" transform="translate(-73.839901,-29.135999)"><path id="eA9wj1iRWsX43" d="M79.467900,4.288000C79.851900,3.568000,80.499900,3.064000,81.411900,2.776000C82.323900,2.488000,83.523900,2.344000,85.011900,2.344000C86.547900,2.344000,87.771900,2.488000,88.683900,2.776000C89.595900,3.064000,90.219900,3.568000,90.555900,4.288000C90.939900,5.008000,91.155900,5.656000,91.203900,6.232000C91.299900,6.760000,91.347900,7.576000,91.347900,8.680000L91.347900,51.664000C91.347900,52.768000,91.299900,53.608000,91.203900,54.184000C91.155900,54.712000,90.939900,55.312000,90.555900,55.984000C89.835900,57.280000,87.795900,57.928000,84.435900,57.928000C81.123900,57.928000,79.275900,56.752000,78.891900,54.400000C76.875900,56.704000,74.067900,57.856000,70.467900,57.856000C66.147900,57.856000,62.211900,55.984000,58.659900,52.240000C55.107900,48.448000,53.331900,44.056000,53.331900,39.064000C53.331900,34.024000,55.107900,29.608000,58.659900,25.816000C62.259900,22.024000,66.195900,20.128000,70.467900,20.128000C74.019900,20.128000,76.779900,21.328000,78.747900,23.728000L78.747900,8.608000C78.747900,7.504000,78.771900,6.688000,78.819900,6.160000C78.915900,5.584000,79.131900,4.960000,79.467900,4.288000ZM67.803900,43.384000C69.051900,44.680000,70.563900,45.328000,72.339900,45.328000C74.115900,45.328000,75.579900,44.680000,76.731900,43.384000C77.931900,42.088000,78.531900,40.672000,78.531900,39.136000C78.531900,37.552000,77.955900,36.088000,76.803900,34.744000C75.699900,33.400000,74.187900,32.728000,72.267900,32.728000C70.347900,32.728000,68.811900,33.400000,67.659900,34.744000C66.507900,36.040000,65.931900,37.480000,65.931900,39.064000C65.931900,40.648000,66.555900,42.088000,67.803900,43.384000Z" fill="rgb(134,106,45)" stroke="none" stroke-width="1" stroke-miterlimit="1"/><path id="eA9wj1iRWsX44" d="M80.467900,3.288000C80.851900,2.568000,81.499900,2.064000,82.411900,1.776000C83.323900,1.488000,84.523900,1.344000,86.011900,1.344000C87.547900,1.344000,88.771900,1.488000,89.683900,1.776000C90.595900,2.064000,91.219900,2.568000,91.555900,3.288000C91.939900,4.008000,92.155900,4.656000,92.203900,5.232000C92.299900,5.760000,92.347900,6.576000,92.347900,7.680000L92.347900,50.664000C92.347900,51.768000,92.299900,52.608000,92.203900,53.184000C92.155900,53.712000,91.939900,54.312000,91.555900,54.984000C90.835900,56.280000,88.795900,56.928000,85.435900,56.928000C82.123900,56.928000,80.275900,55.752000,79.891900,53.400000C77.875900,55.704000,75.067900,56.856000,71.467900,56.856000C67.147900,56.856000,63.211900,54.984000,59.659900,51.240000C56.107900,47.448000,54.331900,43.056000,54.331900,38.064000C54.331900,33.024000,56.107900,28.608000,59.659900,24.816000C63.259900,21.024000,67.195900,19.128000,71.467900,19.128000C75.019900,19.128000,77.779900,20.328000,79.747900,22.728000L79.747900,7.608000C79.747900,6.504000,79.771900,5.688000,79.819900,5.160000C79.915900,4.584000,80.131900,3.960000,80.467900,3.288000ZM68.803900,42.384000C70.051900,43.680000,71.563900,44.328000,73.339900,44.328000C75.115900,44.328000,76.579900,43.680000,77.731900,42.384000C78.931900,41.088000,79.531900,39.672000,79.531900,38.136000C79.531900,36.552000,78.955900,35.088000,77.803900,33.744000C76.699900,32.400000,75.187900,31.728000,73.267900,31.728000C71.347900,31.728000,69.811900,32.400000,68.659900,33.744000C67.507900,35.040000,66.931900,36.480000,66.931900,38.064000C66.931900,39.648000,67.555900,41.088000,68.803900,42.384000Z" fill="rgb(190,149,57)" stroke="none" stroke-width="1" stroke-miterlimit="1"/><path id="eA9wj1iRWsX45" d="M82.467900,2.288000C82.851900,1.568000,83.499900,1.064000,84.411900,0.775998C85.323900,0.487996,86.523900,0.343995,88.011900,0.343995C89.547900,0.343995,90.771900,0.487996,91.683900,0.775998C92.595900,1.064000,93.219900,1.568000,93.555900,2.288000C93.939900,3.008000,94.155900,3.656000,94.203900,4.232000C94.299900,4.760000,94.347900,5.576000,94.347900,6.680000L94.347900,49.664000C94.347900,50.768000,94.299900,51.608000,94.203900,52.184000C94.155900,52.712000,93.939900,53.312000,93.555900,53.984000C92.835900,55.280000,90.795900,55.928000,87.435900,55.928000C84.123900,55.928000,82.275900,54.752000,81.891900,52.400000C79.875900,54.704000,77.067900,55.856000,73.467900,55.856000C69.147900,55.856000,65.211900,53.984000,61.659900,50.240000C58.107900,46.448000,56.331900,42.056000,56.331900,37.064000C56.331900,32.024000,58.107900,27.608000,61.659900,23.816000C65.259900,20.024000,69.195900,18.128000,73.467900,18.128000C77.019900,18.128000,79.779900,19.328000,81.747900,21.728000L81.747900,6.608000C81.747900,5.504000,81.771900,4.688000,81.819900,4.160000C81.915900,3.584000,82.131900,2.960000,82.467900,2.288000ZM70.803900,41.384000C72.051900,42.680000,73.563900,43.328000,75.339900,43.328000C77.115900,43.328000,78.579900,42.680000,79.731900,41.384000C80.931900,40.088000,81.531900,38.672000,81.531900,37.136000C81.531900,35.552000,80.955900,34.088000,79.803900,32.744000C78.699900,31.400000,77.187900,30.728000,75.267900,30.728000C73.347900,30.728000,71.811900,31.400000,70.659900,32.744000C69.507900,34.040000,68.931900,35.480000,68.931900,37.064000C68.931900,38.648000,69.555900,40.088000,70.803900,41.384000Z" fill="rgb(255,204,89)" stroke="none" stroke-width="1" stroke-miterlimit="1"/></g></g><g id="eA9wj1iRWsX46_to" transform="translate(28.039994,30.972001)"><g id="eA9wj1iRWsX46" transform="translate(-28.039994,-30.972001)"><path id="eA9wj1iRWsX47" d="M32.336000,8.968000L51.776000,49.144000C52.592000,50.776000,53,52,53,52.816000C53,54.544000,51.608000,56.104000,48.824000,57.496000C47.192000,58.312000,45.896000,58.720000,44.936000,58.720000C44.024000,58.720000,43.256000,58.504000,42.632000,58.072000C42.056000,57.640000,41.624000,57.184000,41.336000,56.704000C41.096000,56.224000,40.736000,55.504000,40.256000,54.544000L36.512000,46.768000L16.568000,46.768000L12.824000,54.544000C12.344000,55.504000,11.960000,56.200000,11.672000,56.632000C11.432000,57.064000,11,57.520000,10.376000,58C9.799990,58.432000,9.031990,58.648000,8.071990,58.648000C7.159990,58.648000,5.887990,58.240000,4.255990,57.424000C1.471990,56.080000,0.079987,54.544000,0.079987,52.816000C0.079987,52,0.487987,50.776000,1.303990,49.144000L20.744000,8.896000C21.272000,7.792000,22.064000,6.904000,23.120000,6.232000C24.224000,5.560000,25.376000,5.224000,26.576000,5.224000C29.168000,5.224000,31.088000,6.472000,32.336000,8.968000ZM26.504000,26.248000L21.752000,36.112000L31.328000,36.112000L26.504000,26.248000Z" fill="rgb(134,106,45)" stroke="none" stroke-width="1" stroke-miterlimit="1"/><path id="eA9wj1iRWsX48" d="M33.336000,7.968000L52.776000,48.144000C53.592000,49.776000,54,51,54,51.816000C54,53.544000,52.608000,55.104000,49.824000,56.496000C48.192000,57.312000,46.896000,57.720000,45.936000,57.720000C45.024000,57.720000,44.256000,57.504000,43.632000,57.072000C43.056000,56.640000,42.624000,56.184000,42.336000,55.704000C42.096000,55.224000,41.736000,54.504000,41.256000,53.544000L37.512000,45.768000L17.568000,45.768000L13.824000,53.544000C13.344000,54.504000,12.960000,55.200000,12.672000,55.632000C12.432000,56.064000,12,56.520000,11.376000,57C10.800000,57.432000,10.032000,57.648000,9.071990,57.648000C8.159990,57.648000,6.887990,57.240000,5.255990,56.424000C2.471990,55.080000,1.079990,53.544000,1.079990,51.816000C1.079990,51,1.487990,49.776000,2.303990,48.144000L21.744000,7.896000C22.272000,6.792000,23.064000,5.904000,24.120000,5.232000C25.224000,4.560000,26.376000,4.224000,27.576000,4.224000C30.168000,4.224000,32.088000,5.472000,33.336000,7.968000ZM27.504000,25.248000L22.752000,35.112000L32.328000,35.112000L27.504000,25.248000Z" fill="rgb(190,149,57)" stroke="none" stroke-width="1" stroke-miterlimit="1"/><path id="eA9wj1iRWsX49" d="M35.336000,6.968000L54.776000,47.144000C55.592000,48.776000,56,50,56,50.816000C56,52.544000,54.608000,54.104000,51.824000,55.496000C50.192000,56.312000,48.896000,56.720000,47.936000,56.720000C47.024000,56.720000,46.256000,56.504000,45.632000,56.072000C45.056000,55.640000,44.624000,55.184000,44.336000,54.704000C44.096000,54.224000,43.736000,53.504000,43.256000,52.544000L39.512000,44.768000L19.568000,44.768000L15.824000,52.544000C15.344000,53.504000,14.960000,54.200000,14.672000,54.632000C14.432000,55.064000,14,55.520000,13.376000,56C12.800000,56.432000,12.032000,56.648000,11.072000,56.648000C10.160000,56.648000,8.887990,56.240000,7.255990,55.424000C4.471990,54.080000,3.079990,52.544000,3.079990,50.816000C3.079990,50,3.487990,48.776000,4.303990,47.144000L23.744000,6.896000C24.272000,5.792000,25.064000,4.904000,26.120000,4.232000C27.224000,3.560000,28.376000,3.224000,29.576000,3.224000C32.168000,3.224000,34.088000,4.472000,35.336000,6.968000ZM29.504000,24.248000L24.752000,34.112000L34.328000,34.112000L29.504000,24.248000Z" fill="rgb(255,204,89)" stroke="none" stroke-width="1" stroke-miterlimit="1"/></g></g></svg>